<?xml version="1.0" encoding="utf-8" standalone="no"?>
<!DOCTYPE svg PUBLIC "-//W3C//DTD SVG 1.1//EN"
  "http://www.w3.org/Graphics/SVG/1.1/DTD/svg11.dtd">
<!-- Created with matplotlib (https://matplotlib.org/) -->
<svg height="345.6pt" version="1.1" viewBox="0 0 460.8 345.6" width="460.8pt" xmlns="http://www.w3.org/2000/svg" xmlns:xlink="http://www.w3.org/1999/xlink">
 <defs>
  <style type="text/css">
*{stroke-linecap:butt;stroke-linejoin:round;}
  </style>
 </defs>
 <g id="figure_1">
  <g id="patch_1">
   <path d="M 0 345.6 
L 460.8 345.6 
L 460.8 0 
L 0 0 
z
" style="fill:#ffffff;"/>
  </g>
  <g id="axes_1">
   <g id="patch_2">
    <path d="M 47.437639 292.715705 
L 445.64793 292.715705 
L 445.64793 179.495482 
L 47.437639 179.495482 
z
" style="fill:#ffffff;"/>
   </g>
   <g id="patch_3">
    <path clip-path="url(#p1bf185cf13)" d="M 66.097215 292.715705 
L 66.097215 -67734.130979 
L 80.10118 -67734.130979 
L 80.10118 292.715705 
z
" style="fill:#008000;opacity:0.5;stroke:#008000;stroke-linejoin:miter;"/>
   </g>
   <g id="patch_4">
    <path clip-path="url(#p1bf185cf13)" d="M 103.416368 292.715705 
L 103.416368 -67734.130979 
L 117.368677 -67734.130979 
L 117.368677 292.715705 
z
" style="fill:#008000;opacity:0.5;stroke:#008000;stroke-linejoin:miter;"/>
   </g>
   <g id="patch_5">
    <path clip-path="url(#p1bf185cf13)" d="M 140.735521 292.715705 
L 140.735521 -67734.130979 
L 143.952801 -67734.130979 
L 143.952801 292.715705 
z
" style="fill:#008000;opacity:0.5;stroke:#008000;stroke-linejoin:miter;"/>
   </g>
   <g id="patch_6">
    <path clip-path="url(#p1bf185cf13)" d="M 178.054675 292.715705 
L 178.054675 -67734.130979 
L 168.08847 -67734.130979 
L 168.08847 292.715705 
z
" style="fill:#ffff00;opacity:0.5;stroke:#ffff00;stroke-linejoin:miter;"/>
   </g>
   <g id="patch_7">
    <path clip-path="url(#p1bf185cf13)" d="M 215.373828 292.715705 
L 215.373828 -67734.130979 
L 190.199474 -67734.130979 
L 190.199474 292.715705 
z
" style="fill:#ffff00;opacity:0.5;stroke:#ffff00;stroke-linejoin:miter;"/>
   </g>
   <g id="patch_8">
    <path clip-path="url(#p1bf185cf13)" d="M 252.692981 292.715705 
L 252.692981 -67734.130979 
L 219.799422 -67734.130979 
L 219.799422 292.715705 
z
" style="fill:#ffff00;opacity:0.5;stroke:#ffff00;stroke-linejoin:miter;"/>
   </g>
   <g id="patch_9">
    <path clip-path="url(#p1bf185cf13)" d="M 290.012134 292.715705 
L 290.012134 -67734.130979 
L 276.884574 -67734.130979 
L 276.884574 292.715705 
z
" style="fill:#ffff00;opacity:0.5;stroke:#ffff00;stroke-linejoin:miter;"/>
   </g>
   <g id="patch_10">
    <path clip-path="url(#p1bf185cf13)" d="M 308.67171 292.715705 
L 308.67171 -67734.130979 
L 318.980658 -67734.130979 
L 318.980658 292.715705 
z
" style="fill:#008000;opacity:0.5;stroke:#008000;stroke-linejoin:miter;"/>
   </g>
   <g id="matplotlib.axis_1">
    <g id="xtick_1">
     <g id="line2d_1">
      <defs>
       <path d="M 0 0 
L 0 3.5 
" id="m74ee4fd5c8" style="stroke:#000000;stroke-width:0.8;"/>
      </defs>
      <g>
       <use style="stroke:#000000;stroke-width:0.8;" x="80.10118" xlink:href="#m74ee4fd5c8" y="292.715705"/>
      </g>
     </g>
     <g id="text_1">
      <!-- $\mathdefault{288}$ -->
      <defs>
       <path d="M 47.5 13.734375 
L 46.203125 14.25 
C 42.5 8.5 41.203125 7.59375 36.703125 7.59375 
L 12.796875 7.59375 
L 29.59375 25.328125 
C 38.5 34.703125 42.40625 42.359375 42.40625 50.21875 
C 42.40625 60.28125 34.296875 68 23.90625 68 
C 18.40625 68 13.203125 65.796875 9.5 61.796875 
C 6.296875 58.375 4.796875 55.15625 3.09375 48 
L 5.203125 47.484375 
C 9.203125 57.359375 12.796875 60.59375 19.703125 60.59375 
C 28.09375 60.59375 33.796875 54.84375 33.796875 46.390625 
C 33.796875 38.53125 29.203125 29.15625 20.796875 20.1875 
L 3 1.1875 
L 3 0 
L 42 0 
z
" id="Nimbus_Roman_No9_L_Regular-50"/>
       <path d="M 29 37.5 
C 38.90625 42.796875 42.40625 47 42.40625 53.796875 
C 42.40625 62 35.203125 68 25.203125 68 
C 14.296875 68 6.203125 61.296875 6.203125 52.203125 
C 6.203125 45.6875 8.09375 42.796875 18.59375 33.59375 
C 7.796875 25.390625 5.59375 22.296875 5.59375 15.5 
C 5.59375 5.796875 13.5 -1 24.796875 -1 
C 36.796875 -1 44.5 5.59375 44.5 15.890625 
C 44.5 23.59375 41.09375 28.5 29 37.5 
z
M 27.203125 27.1875 
C 34.5 22 36.90625 18.390625 36.90625 12.796875 
C 36.90625 6.296875 32.40625 1.796875 25.90625 1.796875 
C 18.296875 1.796875 13.203125 7.59375 13.203125 16.296875 
C 13.203125 22.6875 15.40625 26.890625 21.203125 31.59375 
z
M 26.09375 39.296875 
C 17.203125 45.09375 13.59375 49.6875 13.59375 55.296875 
C 13.59375 61.09375 18.09375 65.1875 24.40625 65.1875 
C 31.203125 65.1875 35.5 60.796875 35.5 53.890625 
C 35.5 48.1875 32.703125 43.6875 27 39.890625 
C 26.5 39.59375 26.5 39.59375 26.09375 39.296875 
z
" id="Nimbus_Roman_No9_L_Regular-56"/>
      </defs>
      <g transform="translate(73.192143 304.491912)rotate(-315)scale(0.1 -0.1)">
       <use transform="scale(0.996264)" xlink:href="#Nimbus_Roman_No9_L_Regular-50"/>
       <use transform="translate(49.8132 0)scale(0.996264)" xlink:href="#Nimbus_Roman_No9_L_Regular-56"/>
       <use transform="translate(99.626401 0)scale(0.996264)" xlink:href="#Nimbus_Roman_No9_L_Regular-56"/>
      </g>
     </g>
    </g>
    <g id="xtick_2">
     <g id="line2d_2">
      <g>
       <use style="stroke:#000000;stroke-width:0.8;" x="117.368677" xlink:href="#m74ee4fd5c8" y="292.715705"/>
      </g>
     </g>
     <g id="text_2">
      <!-- $\mathdefault{616}$ -->
      <defs>
       <path d="M 44.59375 68.59375 
C 33.203125 67.59375 27.40625 65.6875 20.09375 60.59375 
C 9.296875 52.890625 3.40625 41.484375 3.40625 28.140625 
C 3.40625 19.5 6.09375 10.75 10.40625 5.765625 
C 14.203125 1.390625 19.59375 -1 25.796875 -1 
C 38.203125 -1 46.796875 8.453125 46.796875 22.1875 
C 46.796875 34.90625 39.5 43 28 43 
C 23.59375 43 21.5 42.296875 15.203125 38.484375 
C 17.90625 53.59375 29.09375 64.390625 44.796875 67 
z
M 24.203125 38.390625 
C 32.796875 38.390625 37.796875 31.234375 37.796875 18.796875 
C 37.796875 7.859375 33.90625 1.796875 26.90625 1.796875 
C 18.09375 1.796875 12.703125 11.140625 12.703125 26.5625 
C 12.703125 31.625 13.5 34.421875 15.5 35.90625 
C 17.59375 37.5 20.703125 38.390625 24.203125 38.390625 
z
" id="Nimbus_Roman_No9_L_Regular-54"/>
       <path d="M 29.09375 68 
L 11.09375 59 
L 11.09375 57.59375 
C 12.296875 58.09375 13.40625 58.484375 13.796875 58.6875 
C 15.59375 59.390625 17.296875 59.78125 18.296875 59.78125 
C 20.40625 59.78125 21.296875 58.296875 21.296875 55.078125 
L 21.296875 9.359375 
C 21.296875 6.03125 20.5 3.71875 18.90625 2.796875 
C 17.40625 1.890625 16 1.59375 11.796875 1.5 
L 11.796875 0 
L 39.40625 0 
L 39.40625 1.5 
C 31.5 1.59375 29.90625 2.609375 29.90625 7.453125 
L 29.90625 67.796875 
z
" id="Nimbus_Roman_No9_L_Regular-49"/>
      </defs>
      <g transform="translate(110.459639 304.491912)rotate(-315)scale(0.1 -0.1)">
       <use transform="scale(0.996264)" xlink:href="#Nimbus_Roman_No9_L_Regular-54"/>
       <use transform="translate(49.8132 0)scale(0.996264)" xlink:href="#Nimbus_Roman_No9_L_Regular-49"/>
       <use transform="translate(99.626401 0)scale(0.996264)" xlink:href="#Nimbus_Roman_No9_L_Regular-54"/>
      </g>
     </g>
    </g>
    <g id="xtick_3">
     <g id="line2d_3">
      <g>
       <use style="stroke:#000000;stroke-width:0.8;" x="143.952801" xlink:href="#m74ee4fd5c8" y="292.715705"/>
      </g>
     </g>
     <g id="text_3">
      <!-- $\mathdefault{851}$ -->
      <defs>
       <path d="M 18.09375 58.09375 
L 37.703125 58.09375 
C 39.296875 58.09375 39.703125 58.296875 40 58.984375 
L 43.796875 67.890625 
L 42.90625 68.59375 
C 41.40625 66.5 40.40625 66 38.296875 66 
L 17.40625 66 
L 6.5 42.453125 
C 6.40625 42.265625 6.40625 42.15625 6.40625 41.96875 
C 6.40625 41.46875 6.796875 41.171875 7.59375 41.171875 
C 10.796875 41.171875 14.796875 40.484375 18.90625 39.1875 
C 30.40625 35.53125 35.703125 29.40625 35.703125 19.609375 
C 35.703125 10.109375 29.59375 2.6875 21.796875 2.6875 
C 19.796875 2.6875 18.09375 3.390625 15.09375 5.5625 
C 11.90625 7.84375 9.59375 8.828125 7.5 8.828125 
C 4.59375 8.828125 3.203125 7.640625 3.203125 5.171875 
C 3.203125 1.390625 7.90625 -1 15.40625 -1 
C 23.796875 -1 31 1.6875 36 6.75 
C 40.59375 11.203125 42.703125 16.84375 42.703125 24.359375 
C 42.703125 31.484375 40.796875 36.03125 35.796875 40.96875 
C 31.40625 45.328125 25.703125 47.609375 13.90625 49.6875 
z
" id="Nimbus_Roman_No9_L_Regular-53"/>
      </defs>
      <g transform="translate(137.043763 304.491912)rotate(-315)scale(0.1 -0.1)">
       <use transform="scale(0.996264)" xlink:href="#Nimbus_Roman_No9_L_Regular-56"/>
       <use transform="translate(49.8132 0)scale(0.996264)" xlink:href="#Nimbus_Roman_No9_L_Regular-53"/>
       <use transform="translate(99.626401 0)scale(0.996264)" xlink:href="#Nimbus_Roman_No9_L_Regular-49"/>
      </g>
     </g>
    </g>
    <g id="xtick_4">
     <g id="line2d_4">
      <g>
       <use style="stroke:#000000;stroke-width:0.8;" x="168.08847" xlink:href="#m74ee4fd5c8" y="292.715705"/>
      </g>
     </g>
     <g id="text_4">
      <!-- $\mathdefault{1063}$ -->
      <defs>
       <path d="M 25.40625 68 
C 19.90625 68 15.703125 66.296875 12 62.796875 
C 6.203125 57.203125 2.40625 45.6875 2.40625 34 
C 2.40625 23.09375 5.703125 11.390625 10.40625 5.796875 
C 14.09375 1.390625 19.203125 -1 25 -1 
C 30.09375 -1 34.40625 0.6875 38 4.1875 
C 43.796875 9.6875 47.59375 21.296875 47.59375 33.390625 
C 47.59375 53.890625 38.5 68 25.40625 68 
z
M 25.09375 65.390625 
C 33.5 65.390625 38 54.09375 38 33.1875 
C 38 12.296875 33.59375 1.59375 25 1.59375 
C 16.40625 1.59375 12 12.296875 12 33.09375 
C 12 54.296875 16.5 65.390625 25.09375 65.390625 
z
" id="Nimbus_Roman_No9_L_Regular-48"/>
       <path d="M 15.296875 33.390625 
C 21.203125 33.390625 23.5 33.1875 25.90625 32.296875 
C 32.09375 30.09375 36 24.390625 36 17.5 
C 36 9.09375 30.296875 2.59375 22.90625 2.59375 
C 20.203125 2.59375 18.203125 3.296875 14.5 5.6875 
C 11.5 7.5 9.796875 8.1875 8.09375 8.1875 
C 5.796875 8.1875 4.296875 6.796875 4.296875 4.6875 
C 4.296875 1.1875 8.59375 -1 15.59375 -1 
C 23.296875 -1 31.203125 1.59375 35.90625 5.6875 
C 40.59375 9.796875 43.203125 15.59375 43.203125 22.296875 
C 43.203125 27.390625 41.59375 32.09375 38.703125 35.1875 
C 36.703125 37.390625 34.796875 38.59375 30.40625 40.5 
C 37.296875 45.1875 39.796875 48.890625 39.796875 54.296875 
C 39.796875 62.390625 33.40625 68 24.203125 68 
C 19.203125 68 14.796875 66.296875 11.203125 63.09375 
C 8.203125 60.390625 6.703125 57.796875 4.5 51.796875 
L 6 51.390625 
C 10.09375 58.703125 14.59375 61.984375 20.90625 61.984375 
C 27.40625 61.984375 31.90625 57.59375 31.90625 51.296875 
C 31.90625 47.6875 30.40625 44.09375 27.90625 41.59375 
C 24.90625 38.59375 22.09375 37.09375 15.296875 34.6875 
z
" id="Nimbus_Roman_No9_L_Regular-51"/>
      </defs>
      <g transform="translate(159.41827 304.491912)rotate(-315)scale(0.1 -0.1)">
       <use transform="scale(0.996264)" xlink:href="#Nimbus_Roman_No9_L_Regular-49"/>
       <use transform="translate(49.8132 0)scale(0.996264)" xlink:href="#Nimbus_Roman_No9_L_Regular-48"/>
       <use transform="translate(99.626401 0)scale(0.996264)" xlink:href="#Nimbus_Roman_No9_L_Regular-54"/>
       <use transform="translate(149.439601 0)scale(0.996264)" xlink:href="#Nimbus_Roman_No9_L_Regular-51"/>
      </g>
     </g>
    </g>
    <g id="xtick_5">
     <g id="line2d_5">
      <g>
       <use style="stroke:#000000;stroke-width:0.8;" x="190.199474" xlink:href="#m74ee4fd5c8" y="292.715705"/>
      </g>
     </g>
     <g id="text_5">
      <!-- $\mathdefault{1258}$ -->
      <g transform="translate(181.529274 304.491912)rotate(-315)scale(0.1 -0.1)">
       <use transform="scale(0.996264)" xlink:href="#Nimbus_Roman_No9_L_Regular-49"/>
       <use transform="translate(49.8132 0)scale(0.996264)" xlink:href="#Nimbus_Roman_No9_L_Regular-50"/>
       <use transform="translate(99.626401 0)scale(0.996264)" xlink:href="#Nimbus_Roman_No9_L_Regular-53"/>
       <use transform="translate(149.439601 0)scale(0.996264)" xlink:href="#Nimbus_Roman_No9_L_Regular-56"/>
      </g>
     </g>
    </g>
    <g id="xtick_6">
     <g id="line2d_6">
      <g>
       <use style="stroke:#000000;stroke-width:0.8;" x="219.799422" xlink:href="#m74ee4fd5c8" y="292.715705"/>
      </g>
     </g>
     <g id="text_6">
      <!-- $\mathdefault{1519}$ -->
      <defs>
       <path d="M 5.90625 -1.90625 
C 17.09375 -0.609375 22.59375 1.296875 29.40625 6.1875 
C 39.796875 13.796875 45.90625 26.1875 45.90625 39.71875 
C 45.90625 56.265625 36.703125 68 23.796875 68 
C 11.90625 68 3 57.875 3 44.328125 
C 3 32.109375 10.203125 24 21 24 
C 26.5 24 30.703125 25.59375 36 29.703125 
C 31.90625 13.390625 20.796875 2.6875 5.59375 0.09375 
z
M 36.203125 35.8125 
C 36.203125 33.8125 35.796875 32.90625 34.703125 32 
C 31.90625 29.59375 28.203125 28.296875 24.59375 28.296875 
C 17 28.296875 12.203125 35.8125 12.203125 47.75 
C 12.203125 53.453125 13.796875 59.46875 15.90625 62.078125 
C 17.59375 64.09375 20.09375 65.1875 23 65.1875 
C 31.703125 65.1875 36.203125 56.5625 36.203125 39.71875 
z
" id="Nimbus_Roman_No9_L_Regular-57"/>
      </defs>
      <g transform="translate(211.129222 304.491912)rotate(-315)scale(0.1 -0.1)">
       <use transform="scale(0.996264)" xlink:href="#Nimbus_Roman_No9_L_Regular-49"/>
       <use transform="translate(49.8132 0)scale(0.996264)" xlink:href="#Nimbus_Roman_No9_L_Regular-53"/>
       <use transform="translate(99.626401 0)scale(0.996264)" xlink:href="#Nimbus_Roman_No9_L_Regular-49"/>
       <use transform="translate(149.439601 0)scale(0.996264)" xlink:href="#Nimbus_Roman_No9_L_Regular-57"/>
      </g>
     </g>
    </g>
    <g id="xtick_7">
     <g id="line2d_7">
      <g>
       <use style="stroke:#000000;stroke-width:0.8;" x="276.884574" xlink:href="#m74ee4fd5c8" y="292.715705"/>
      </g>
     </g>
     <g id="text_7">
      <!-- $\mathdefault{2022}$ -->
      <g transform="translate(268.214374 304.491912)rotate(-315)scale(0.1 -0.1)">
       <use transform="scale(0.996264)" xlink:href="#Nimbus_Roman_No9_L_Regular-50"/>
       <use transform="translate(49.8132 0)scale(0.996264)" xlink:href="#Nimbus_Roman_No9_L_Regular-48"/>
       <use transform="translate(99.626401 0)scale(0.996264)" xlink:href="#Nimbus_Roman_No9_L_Regular-50"/>
       <use transform="translate(149.439601 0)scale(0.996264)" xlink:href="#Nimbus_Roman_No9_L_Regular-50"/>
      </g>
     </g>
    </g>
    <g id="xtick_8">
     <g id="line2d_8">
      <g>
       <use style="stroke:#000000;stroke-width:0.8;" x="318.980658" xlink:href="#m74ee4fd5c8" y="292.715705"/>
      </g>
     </g>
     <g id="text_8">
      <!-- $\mathdefault{2393}$ -->
      <g transform="translate(310.310458 304.491912)rotate(-315)scale(0.1 -0.1)">
       <use transform="scale(0.996264)" xlink:href="#Nimbus_Roman_No9_L_Regular-50"/>
       <use transform="translate(49.8132 0)scale(0.996264)" xlink:href="#Nimbus_Roman_No9_L_Regular-51"/>
       <use transform="translate(99.626401 0)scale(0.996264)" xlink:href="#Nimbus_Roman_No9_L_Regular-57"/>
       <use transform="translate(149.439601 0)scale(0.996264)" xlink:href="#Nimbus_Roman_No9_L_Regular-51"/>
      </g>
     </g>
    </g>
    <g id="text_9">
     <!-- Time (unitless) -->
     <defs>
      <path d="M 25.40625 61.796875 
L 25.40625 11.953125 
C 25.40625 3.484375 24.296875 2.390625 16 1.890625 
L 16 0 
L 45.203125 0 
L 45.203125 1.890625 
C 37 2.296875 35.59375 3.59375 35.59375 10.859375 
L 35.59375 61.796875 
L 41 61.796875 
C 52.40625 61.796875 54.59375 60 56.90625 49.03125 
L 59.296875 49.03125 
L 58.703125 66 
L 2.296875 66 
L 1.703125 49.03125 
L 4.09375 49.03125 
C 6.5 59.90625 8.796875 61.796875 20 61.796875 
z
" id="Nimbus_Roman_No9_L_Regular-84"/>
      <path d="M 17.5 46 
L 2 40.5 
L 2 39 
L 2.796875 39.09375 
C 4 39.296875 5.296875 39.390625 6.203125 39.390625 
C 8.59375 39.390625 9.5 37.796875 9.5 33.390625 
L 9.5 10.1875 
C 9.5 3 8.5 1.890625 1.59375 1.5 
L 1.59375 0 
L 25.296875 0 
L 25.296875 1.5 
C 18.703125 2 17.90625 3 17.90625 10.1875 
L 17.90625 45.6875 
z
M 12.796875 68 
C 10.09375 68 7.796875 65.6875 7.796875 62.890625 
C 7.796875 60.09375 10 57.796875 12.796875 57.796875 
C 15.703125 57.796875 18 59.984375 18 62.890625 
C 18 65.6875 15.703125 68 12.796875 68 
z
" id="Nimbus_Roman_No9_L_Regular-105"/>
      <path d="M 1.90625 39.796875 
C 3.203125 40.09375 4 40.1875 5.09375 40.1875 
C 7.703125 40.1875 8.59375 38.59375 8.59375 33.796875 
L 8.59375 8.5 
C 8.59375 3.09375 7.203125 1.59375 1.59375 1.5 
L 1.59375 0 
L 23.796875 0 
L 23.796875 1.5 
C 18.5 1.6875 17 2.796875 17 6.6875 
L 17 34.890625 
C 17 35.09375 17.796875 36.09375 18.5 36.796875 
C 21 39.09375 25.296875 40.796875 28.796875 40.796875 
C 33.203125 40.796875 35.40625 37.296875 35.40625 30.296875 
L 35.40625 8.59375 
C 35.40625 3 34.296875 1.890625 28.59375 1.5 
L 28.59375 0 
L 51 0 
L 51 1.5 
C 45.296875 1.59375 43.796875 3.296875 43.796875 9.5 
L 43.796875 34.6875 
C 46.796875 39 50.09375 40.796875 54.703125 40.796875 
C 60.40625 40.796875 62.203125 38.09375 62.203125 29.796875 
L 62.203125 8.6875 
C 62.203125 3 61.40625 2.1875 55.59375 1.5 
L 55.59375 0 
L 77.5 0 
L 77.5 1.5 
L 74.90625 1.6875 
C 71.90625 1.890625 70.59375 3.6875 70.59375 7.59375 
L 70.59375 28.1875 
C 70.59375 40 66.703125 46 59 46 
C 53.203125 46 48.09375 43.390625 42.703125 37.59375 
C 40.90625 43.296875 37.5 46 32.09375 46 
C 27.703125 46 24.90625 44.59375 16.59375 38.296875 
L 16.59375 45.796875 
L 15.90625 46 
C 10.796875 44.09375 7.40625 42.984375 1.90625 41.484375 
z
" id="Nimbus_Roman_No9_L_Regular-109"/>
      <path d="M 40.796875 16.4375 
C 36 8.8125 31.703125 5.890625 25.296875 5.890625 
C 19.59375 5.890625 15.296875 8.8125 12.40625 14.53125 
C 10.59375 18.34375 9.90625 21.65625 9.703125 27.796875 
L 40.5 27.796875 
C 39.703125 34.265625 38.703125 37.140625 36.203125 40.3125 
C 33.203125 43.890625 28.59375 46 23.40625 46 
C 18.40625 46 13.703125 44.1875 9.90625 40.8125 
C 5.203125 36.734375 2.5 29.6875 2.5 21.46875 
C 2.5 7.59375 9.703125 -1 21.203125 -1 
C 30.703125 -1 38.203125 4.890625 42.40625 15.734375 
z
M 9.90625 31 
C 11 38.71875 14.40625 42.390625 20.5 42.390625 
C 26.59375 42.390625 29 39.609375 30.296875 31 
z
" id="Nimbus_Roman_No9_L_Regular-101"/>
      <path d="M 29.5 68 
C 22.09375 63.1875 19.09375 60.59375 15.40625 55.984375 
C 8.296875 47.296875 4.796875 37.296875 4.796875 25.59375 
C 4.796875 12.890625 8.5 3.09375 17.296875 -7.109375 
C 21.40625 -11.90625 24 -14.109375 29.203125 -17.3125 
L 30.40625 -15.71875 
C 22.40625 -9.40625 19.59375 -5.90625 16.90625 1.59375 
C 14.5 8.28125 13.40625 15.890625 13.40625 25.890625 
C 13.40625 36.390625 14.703125 44.59375 17.40625 50.796875 
C 20.203125 56.984375 23.203125 60.59375 30.40625 66.390625 
z
" id="Nimbus_Roman_No9_L_Regular-40"/>
      <path d="M 47.90625 4.984375 
L 47.40625 4.984375 
C 42.796875 4.984375 41.703125 6.09375 41.703125 10.6875 
L 41.703125 45 
L 25.90625 45 
L 25.90625 43.296875 
C 32.09375 43 33.296875 42 33.296875 37 
L 33.296875 13.5 
C 33.296875 10.6875 32.796875 9.296875 31.40625 8.1875 
C 28.703125 6 25.59375 4.796875 22.59375 4.796875 
C 18.703125 4.796875 15.5 8.1875 15.5 12.390625 
L 15.5 45 
L 0.90625 45 
L 0.90625 43.59375 
C 5.703125 43.296875 7.09375 41.796875 7.09375 37.1875 
L 7.09375 12 
C 7.09375 4.09375 11.90625 -1 19.203125 -1 
C 22.90625 -1 26.796875 0.59375 29.5 3.296875 
L 33.796875 7.59375 
L 33.796875 -0.703125 
L 34.203125 -1 
C 39.203125 1 42.796875 2.09375 47.90625 3.5 
z
" id="Nimbus_Roman_No9_L_Regular-117"/>
      <path d="M 1.59375 39.796875 
C 2.203125 40.09375 3.203125 40.1875 4.296875 40.1875 
C 7.09375 40.1875 8 38.6875 8 33.796875 
L 8 9 
C 8 3.296875 6.90625 1.890625 1.796875 1.5 
L 1.796875 0 
L 23 0 
L 23 1.5 
C 17.90625 1.890625 16.40625 3.09375 16.40625 6.6875 
L 16.40625 34.796875 
C 21.203125 39.296875 23.40625 40.484375 26.703125 40.484375 
C 31.59375 40.484375 34 37.390625 34 30.796875 
L 34 9.890625 
C 34 3.59375 32.703125 1.890625 27.703125 1.5 
L 27.703125 0 
L 48.5 0 
L 48.5 1.5 
C 43.59375 2 42.40625 3.1875 42.40625 8.09375 
L 42.40625 31 
C 42.40625 40.390625 38 46 30.59375 46 
C 26 46 22.90625 44.296875 16.09375 37.890625 
L 16.09375 45.796875 
L 15.40625 46 
C 10.5 44.1875 7.09375 43.09375 1.59375 41.484375 
z
" id="Nimbus_Roman_No9_L_Regular-110"/>
      <path d="M 25.5 45 
L 15.40625 45 
L 15.40625 56.59375 
C 15.40625 57.59375 15.296875 57.890625 14.703125 57.890625 
C 14 57 13.40625 56.09375 12.703125 55.09375 
C 8.90625 49.59375 4.59375 44.796875 3 44.390625 
C 1.90625 43.6875 1.296875 42.984375 1.296875 42.484375 
C 1.296875 42.1875 1.40625 41.984375 1.703125 41.796875 
L 7 41.796875 
L 7 11.6875 
C 7 3.296875 10 -1 15.90625 -1 
C 20.796875 -1 24.59375 1.390625 27.90625 6.59375 
L 26.59375 7.6875 
C 24.5 5.1875 22.796875 4.1875 20.59375 4.1875 
C 16.90625 4.1875 15.40625 6.890625 15.40625 13.1875 
L 15.40625 41.796875 
L 25.5 41.796875 
z
" id="Nimbus_Roman_No9_L_Regular-116"/>
      <path d="M 1.90625 62.296875 
L 2.5 62.296875 
C 3.59375 62.390625 4.796875 62.5 5.59375 62.5 
C 8.796875 62.5 9.796875 61.09375 9.796875 56.390625 
L 9.796875 8.6875 
C 9.796875 3.296875 8.40625 2 2.09375 1.5 
L 2.09375 0 
L 25.703125 0 
L 25.703125 1.5 
C 19.40625 1.890625 18.203125 2.890625 18.203125 8.390625 
L 18.203125 68.09375 
L 17.796875 68.296875 
C 12.59375 66.59375 8.796875 65.59375 1.90625 63.890625 
z
" id="Nimbus_Roman_No9_L_Regular-108"/>
      <path d="M 31.5 31.390625 
L 31.09375 45 
L 30 45 
L 29.796875 44.796875 
C 28.90625 44.09375 28.796875 43.984375 28.40625 43.984375 
C 27.796875 43.984375 26.796875 44.1875 25.703125 44.6875 
C 23.5 45.59375 21.296875 46 18.703125 46 
C 10.796875 46 5.09375 40.890625 5.09375 33.671875 
C 5.09375 28.0625 8.296875 24.046875 16.796875 19.234375 
L 22.59375 15.921875 
C 26.09375 13.921875 27.796875 11.515625 27.796875 8.40625 
C 27.796875 4 24.59375 1.1875 19.5 1.1875 
C 16.09375 1.1875 13 2.5 11.09375 4.703125 
C 9 7.203125 8.09375 9.515625 6.796875 15.21875 
L 5.203125 15.21875 
L 5.203125 -0.40625 
L 6.5 -0.40625 
C 7.203125 0.59375 7.59375 0.796875 8.796875 0.796875 
C 9.703125 0.796875 11.09375 0.59375 13.40625 0 
C 16.203125 -0.609375 18.90625 -1 20.703125 -1 
C 28.40625 -1 34.796875 4.796875 34.796875 11.8125 
C 34.796875 16.828125 32.40625 20.140625 26.40625 23.75 
L 15.59375 30.15625 
C 12.796875 31.765625 11.296875 34.265625 11.296875 36.96875 
C 11.296875 40.984375 14.40625 43.796875 19 43.796875 
C 24.703125 43.796875 27.703125 40.390625 30 31.46875 
z
" id="Nimbus_Roman_No9_L_Regular-115"/>
      <path d="M 3.796875 -17.3125 
C 11.203125 -12.515625 14.203125 -9.90625 17.90625 -5.3125 
C 25 3.390625 28.5 13.390625 28.5 25.09375 
C 28.5 37.890625 24.796875 47.59375 16 57.796875 
C 11.90625 62.59375 9.296875 64.796875 4.09375 68 
L 2.90625 66.390625 
C 10.90625 60.09375 13.59375 56.59375 16.40625 49.09375 
C 18.796875 42.390625 19.90625 34.796875 19.90625 24.796875 
C 19.90625 14.390625 18.59375 6.09375 15.90625 -0.015625 
C 13.09375 -6.3125 10.09375 -9.90625 2.90625 -15.71875 
z
" id="Nimbus_Roman_No9_L_Regular-41"/>
     </defs>
     <g transform="translate(210.390901 332.211805)scale(0.12 -0.12)">
      <use transform="scale(0.996264)" xlink:href="#Nimbus_Roman_No9_L_Regular-84"/>
      <use transform="translate(57.384904 0)scale(0.996264)" xlink:href="#Nimbus_Roman_No9_L_Regular-105"/>
      <use transform="translate(85.080074 0)scale(0.996264)" xlink:href="#Nimbus_Roman_No9_L_Regular-109"/>
      <use transform="translate(162.588444 0)scale(0.996264)" xlink:href="#Nimbus_Roman_No9_L_Regular-101"/>
      <use transform="translate(231.728613 0)scale(0.996264)" xlink:href="#Nimbus_Roman_No9_L_Regular-40"/>
      <use transform="translate(264.903843 0)scale(0.996264)" xlink:href="#Nimbus_Roman_No9_L_Regular-117"/>
      <use transform="translate(314.717043 0)scale(0.996264)" xlink:href="#Nimbus_Roman_No9_L_Regular-110"/>
      <use transform="translate(364.530244 0)scale(0.996264)" xlink:href="#Nimbus_Roman_No9_L_Regular-105"/>
      <use transform="translate(392.225413 0)scale(0.996264)" xlink:href="#Nimbus_Roman_No9_L_Regular-116"/>
      <use transform="translate(419.920583 0)scale(0.996264)" xlink:href="#Nimbus_Roman_No9_L_Regular-108"/>
      <use transform="translate(447.615752 0)scale(0.996264)" xlink:href="#Nimbus_Roman_No9_L_Regular-101"/>
      <use transform="translate(491.849321 0)scale(0.996264)" xlink:href="#Nimbus_Roman_No9_L_Regular-115"/>
      <use transform="translate(530.603027 0)scale(0.996264)" xlink:href="#Nimbus_Roman_No9_L_Regular-115"/>
      <use transform="translate(569.356734 0)scale(0.996264)" xlink:href="#Nimbus_Roman_No9_L_Regular-41"/>
     </g>
    </g>
   </g>
   <g id="matplotlib.axis_2">
    <g id="ytick_1">
     <g id="line2d_9">
      <defs>
       <path d="M 0 0 
L -3.5 0 
" id="m778ea746c7" style="stroke:#000000;stroke-width:0.8;"/>
      </defs>
      <g>
       <use style="stroke:#000000;stroke-width:0.8;" x="47.437639" xlink:href="#m778ea746c7" y="287.569331"/>
      </g>
     </g>
     <g id="text_10">
      <!-- $\mathdefault{0}$ -->
      <g transform="translate(35.456319 290.94662)scale(0.1 -0.1)">
       <use transform="scale(0.996264)" xlink:href="#Nimbus_Roman_No9_L_Regular-48"/>
      </g>
     </g>
    </g>
    <g id="ytick_2">
     <g id="line2d_10">
      <g>
       <use style="stroke:#000000;stroke-width:0.8;" x="47.437639" xlink:href="#m778ea746c7" y="253.307941"/>
      </g>
     </g>
     <g id="text_11">
      <!-- $\mathdefault{200}$ -->
      <g transform="translate(25.493679 256.68523)scale(0.1 -0.1)">
       <use transform="scale(0.996264)" xlink:href="#Nimbus_Roman_No9_L_Regular-50"/>
       <use transform="translate(49.8132 0)scale(0.996264)" xlink:href="#Nimbus_Roman_No9_L_Regular-48"/>
       <use transform="translate(99.626401 0)scale(0.996264)" xlink:href="#Nimbus_Roman_No9_L_Regular-48"/>
      </g>
     </g>
    </g>
    <g id="ytick_3">
     <g id="line2d_11">
      <g>
       <use style="stroke:#000000;stroke-width:0.8;" x="47.437639" xlink:href="#m778ea746c7" y="219.046551"/>
      </g>
     </g>
     <g id="text_12">
      <!-- $\mathdefault{400}$ -->
      <defs>
       <path d="M 47.203125 23.390625 
L 37 23.390625 
L 37 68 
L 32.59375 68 
L 1.203125 23.390625 
L 1.203125 17 
L 29.296875 17 
L 29.296875 0 
L 37 0 
L 37 17 
L 47.203125 17 
z
M 29.203125 23.390625 
L 5.203125 23.390625 
L 29.203125 57.765625 
z
" id="Nimbus_Roman_No9_L_Regular-52"/>
      </defs>
      <g transform="translate(25.493679 222.42384)scale(0.1 -0.1)">
       <use transform="scale(0.996264)" xlink:href="#Nimbus_Roman_No9_L_Regular-52"/>
       <use transform="translate(49.8132 0)scale(0.996264)" xlink:href="#Nimbus_Roman_No9_L_Regular-48"/>
       <use transform="translate(99.626401 0)scale(0.996264)" xlink:href="#Nimbus_Roman_No9_L_Regular-48"/>
      </g>
     </g>
    </g>
    <g id="ytick_4">
     <g id="line2d_12">
      <g>
       <use style="stroke:#000000;stroke-width:0.8;" x="47.437639" xlink:href="#m778ea746c7" y="184.785161"/>
      </g>
     </g>
     <g id="text_13">
      <!-- $\mathdefault{600}$ -->
      <g transform="translate(25.493679 188.162449)scale(0.1 -0.1)">
       <use transform="scale(0.996264)" xlink:href="#Nimbus_Roman_No9_L_Regular-54"/>
       <use transform="translate(49.8132 0)scale(0.996264)" xlink:href="#Nimbus_Roman_No9_L_Regular-48"/>
       <use transform="translate(99.626401 0)scale(0.996264)" xlink:href="#Nimbus_Roman_No9_L_Regular-48"/>
      </g>
     </g>
    </g>
    <g id="text_14">
     <!-- Number active nodes in gen -->
     <defs>
      <path d="M 61.203125 -1 
L 61.203125 51.359375 
C 61.203125 57.328125 62.203125 61.015625 64.09375 62.3125 
C 65.5 63.296875 66.90625 63.703125 70.703125 64.09375 
L 70.703125 66 
L 47.203125 66 
L 47.203125 64.09375 
C 51 63.796875 52.40625 63.40625 53.90625 62.5 
C 55.90625 61.109375 56.796875 57.53125 56.796875 51.359375 
L 56.796875 17.8125 
L 18.296875 66 
L 1.203125 66 
L 1.203125 64.09375 
C 5.5 64.09375 6.90625 63.296875 10.90625 58.625 
L 10.90625 14.734375 
C 10.90625 4.390625 9.5 2.5 1.203125 1.890625 
L 1.203125 0 
L 24.703125 0 
L 24.703125 1.890625 
C 17 2.296875 15.296875 4.59375 15.296875 14.6875 
L 15.296875 53.890625 
L 59.5 -1 
z
" id="Nimbus_Roman_No9_L_Regular-78"/>
      <path d="M 15.296875 68.09375 
L 14.796875 68.296875 
C 10.59375 66.796875 7.90625 66 3.203125 64.6875 
L 0.296875 63.890625 
L 0.296875 62.296875 
C 0.90625 62.390625 1.296875 62.390625 2 62.390625 
C 6 62.390625 6.90625 61.5 6.90625 57.296875 
L 6.90625 5.390625 
C 6.90625 2.296875 15.40625 -1 23.40625 -1 
C 36.59375 -1 46.796875 9.984375 46.796875 24.296875 
C 46.796875 36.59375 39.203125 46 29.203125 46 
C 23.09375 46 17.296875 42.390625 15.296875 37.484375 
z
M 15.296875 32.1875 
C 15.296875 36.09375 20 39.6875 25.203125 39.6875 
C 33 39.6875 38 31.890625 38 19.6875 
C 38 8.59375 33.203125 2.1875 25 2.1875 
C 19.796875 2.1875 15.296875 4.484375 15.296875 6.984375 
z
" id="Nimbus_Roman_No9_L_Regular-98"/>
      <path d="M 0.703125 39 
C 2.09375 39.296875 3 39.390625 4.203125 39.390625 
C 6.703125 39.390625 7.59375 37.796875 7.59375 33.390625 
L 7.59375 8.390625 
C 7.59375 3.390625 6.90625 2.6875 0.5 1.5 
L 0.5 0 
L 24.5 0 
L 24.5 1.5 
C 17.703125 1.796875 16 3.296875 16 9 
L 16 31.5 
C 16 34.6875 20.296875 39.6875 23 39.6875 
C 23.59375 39.6875 24.5 39.1875 25.59375 38.1875 
C 27.203125 36.796875 28.296875 36.1875 29.59375 36.1875 
C 32 36.1875 33.5 37.890625 33.5 40.6875 
C 33.5 43.984375 31.40625 46 28 46 
C 23.796875 46 20.90625 43.6875 16 36.59375 
L 16 45.796875 
L 15.5 46 
C 10.203125 43.796875 6.59375 42.5 0.703125 40.59375 
z
" id="Nimbus_Roman_No9_L_Regular-114"/>
      <path d="M 44.203125 6.59375 
C 42.5 5.1875 41.296875 4.6875 39.796875 4.6875 
C 37.5 4.6875 36.796875 6.09375 36.796875 10.5 
L 36.796875 30 
C 36.796875 35.1875 36.296875 38.09375 34.796875 40.5 
C 32.59375 44.09375 28.296875 46 22.40625 46 
C 13 46 5.59375 41.09375 5.59375 34.796875 
C 5.59375 32.5 7.59375 30.5 9.90625 30.5 
C 12.296875 30.5 14.40625 32.5 14.40625 34.6875 
C 14.40625 35.09375 14.296875 35.59375 14.203125 36.296875 
C 14 37.1875 13.90625 38 13.90625 38.6875 
C 13.90625 41.390625 17.09375 43.59375 21.09375 43.59375 
C 26 43.59375 28.703125 40.6875 28.703125 35.296875 
L 28.703125 29.1875 
C 13.296875 23 11.59375 22.1875 7.296875 18.390625 
C 5.09375 16.390625 3.703125 13 3.703125 9.6875 
C 3.703125 3.390625 8.09375 -1 14.203125 -1 
C 18.59375 -1 22.703125 1.09375 28.796875 6.296875 
C 29.296875 1.09375 31.09375 -1 35.203125 -1 
C 38.59375 -1 40.703125 0.1875 44.203125 4 
z
M 28.703125 12.296875 
C 28.703125 9.1875 28.203125 8.296875 26.09375 7.09375 
C 23.703125 5.6875 20.90625 4.796875 18.796875 4.796875 
C 15.296875 4.796875 12.5 8.1875 12.5 12.5 
L 12.5 12.890625 
C 12.5 18.796875 16.59375 22.390625 28.703125 26.796875 
z
" id="Nimbus_Roman_No9_L_Regular-97"/>
      <path d="M 39.796875 15.59375 
C 35 8.59375 31.40625 6.1875 25.703125 6.1875 
C 16.59375 6.1875 10.203125 14.1875 10.203125 25.6875 
C 10.203125 35.984375 15.703125 43.09375 23.796875 43.09375 
C 27.40625 43.09375 28.703125 41.984375 29.703125 38.296875 
L 30.296875 36.09375 
C 31.09375 33.296875 32.90625 31.484375 35 31.484375 
C 37.59375 31.484375 39.796875 33.390625 39.796875 35.6875 
C 39.796875 41.296875 32.796875 46 24.40625 46 
C 19.5 46 14.40625 43.984375 10.296875 40.390625 
C 5.296875 35.984375 2.5 29.1875 2.5 21.296875 
C 2.5 8.296875 10.40625 -1 21.5 -1 
C 26 -1 30 0.59375 33.59375 3.6875 
C 36.296875 6.09375 38.203125 8.796875 41.203125 14.6875 
z
" id="Nimbus_Roman_No9_L_Regular-99"/>
      <path d="M 47.703125 45 
L 33.796875 45 
L 33.796875 43.484375 
C 37 43.1875 38.5 42.203125 38.5 40.3125 
C 38.5 39.328125 38.296875 38.34375 37.90625 37.34375 
L 28 11.6875 
L 17.796875 37.046875 
C 17.203125 38.4375 16.90625 39.828125 16.90625 40.71875 
C 16.90625 42.5 18 43.1875 21.5 43.484375 
L 21.5 45 
L 1.90625 45 
L 1.90625 43.484375 
C 5.703125 43.296875 6.40625 42.296875 11 32.09375 
L 23 3.671875 
C 23.203125 3.078125 23.5 2.375 23.796875 1.59375 
C 24.40625 -0.203125 25 -1 25.59375 -1 
C 26.203125 -1 26.90625 0.296875 28.40625 3.96875 
L 41.203125 35.765625 
C 44.09375 42.5 44.703125 43.1875 47.703125 43.484375 
z
" id="Nimbus_Roman_No9_L_Regular-118"/>
      <path d="M 25 46 
C 12 46 2.90625 36.390625 2.90625 22.59375 
C 2.90625 9.09375 12.203125 -1 24.796875 -1 
C 37.40625 -1 47 9.59375 47 23.390625 
C 47 36.5 37.796875 46 25 46 
z
M 23.703125 43.1875 
C 32.09375 43.1875 38 33.59375 38 19.890625 
C 38 8.59375 33.5 1.796875 26 1.796875 
C 22.09375 1.796875 18.40625 4.1875 16.296875 8.1875 
C 13.5 13.390625 11.90625 20.390625 11.90625 27.5 
C 11.90625 37 16.59375 43.1875 23.703125 43.1875 
z
" id="Nimbus_Roman_No9_L_Regular-111"/>
      <path d="M 34.40625 -1 
L 49.09375 4.1875 
L 49.09375 5.796875 
C 47.296875 5.6875 47.09375 5.6875 46.796875 5.6875 
C 43.203125 5.6875 42.40625 6.796875 42.40625 11.390625 
L 42.40625 68.09375 
L 41.90625 68.296875 
C 37.09375 66.59375 33.59375 65.59375 27.203125 63.890625 
L 27.203125 62.296875 
C 28 62.390625 28.59375 62.390625 29.40625 62.390625 
C 33.09375 62.390625 34 61.390625 34 57.296875 
L 34 41.6875 
C 30.203125 44.890625 27.5 46 23.5 46 
C 12 46 2.703125 34.6875 2.703125 20.5 
C 2.703125 7.6875 10.203125 -1 21.203125 -1 
C 26.796875 -1 30.59375 1 34 5.6875 
L 34 -0.703125 
z
M 34 10.1875 
C 34 9.5 33.296875 8.296875 32.296875 7.1875 
C 30.5 5.1875 28 4.1875 25.09375 4.1875 
C 16.796875 4.1875 11.296875 12.1875 11.296875 24.5 
C 11.296875 35.796875 16.203125 43.1875 23.796875 43.1875 
C 29.09375 43.1875 34 38.5 34 33.1875 
z
" id="Nimbus_Roman_No9_L_Regular-100"/>
      <path d="M 47 38.09375 
L 47 42 
L 39.296875 42 
C 37.296875 42 35.796875 42.71875 33.796875 43.6875 
L 31.59375 44.484375 
C 28.90625 45.484375 26.203125 46 23.59375 46 
C 14.296875 46 6.90625 38.09375 6.90625 29.328125 
C 6.90625 23.265625 9.59375 19.609375 16.203125 16.390625 
C 14.296875 14.59375 12.5 12.90625 11.90625 12.40625 
C 8.59375 9.53125 7.296875 7.546875 7.296875 5.5625 
C 7.296875 3.484375 8.5 2.296875 12.59375 0.296875 
C 5.5 -4.9375 2.796875 -8.265625 2.796875 -11.984375 
C 2.796875 -17.3125 10.59375 -21.703125 20.09375 -21.703125 
C 27.59375 -21.703125 35.40625 -19.109375 40.59375 -14.90625 
C 44.40625 -11.78125 46.09375 -8.5625 46.09375 -4.734375 
C 46.09375 1.5 41.40625 5.671875 34 5.96875 
L 21.09375 6.5625 
C 15.796875 6.75 13.296875 7.65625 13.296875 9.234375 
C 13.296875 11.21875 16.59375 14.703125 19.296875 15.5 
C 20.203125 15.390625 20.90625 15.296875 21.203125 15.296875 
C 23.09375 15.09375 24.40625 15 25 15 
C 28.703125 15 32.703125 16.5 35.796875 19.125 
C 39.09375 21.828125 40.59375 25.1875 40.59375 30 
C 40.59375 32.796875 40.09375 35.015625 38.703125 38.09375 
z
M 14.703125 0 
C 18 -0.71875 26 -1.3125 30.90625 -1.3125 
C 40 -1.3125 43.296875 -2.625 43.296875 -6.25 
C 43.296875 -12.078125 35.703125 -16 24.40625 -16 
C 15.59375 -16 9.796875 -13.09375 9.796875 -8.65625 
C 9.796875 -6.34375 10.5 -5.03125 14.703125 0 
z
M 15.203125 33.28125 
C 15.203125 38.984375 18 43.1875 22.59375 43.1875 
C 25.703125 43.1875 28.296875 40.796875 29.90625 37.796875 
C 31.703125 34.4375 32.90625 30 32.90625 26.25 
C 32.90625 20.859375 30 17.5 25.40625 17.5 
C 19.40625 17.5 15.203125 23.75 15.203125 32.984375 
z
" id="Nimbus_Roman_No9_L_Regular-103"/>
     </defs>
     <g transform="translate(18.905484 302.934468)rotate(-90)scale(0.12 -0.12)">
      <use transform="scale(0.996264)" xlink:href="#Nimbus_Roman_No9_L_Regular-78"/>
      <use transform="translate(71.929985 0)scale(0.996264)" xlink:href="#Nimbus_Roman_No9_L_Regular-117"/>
      <use transform="translate(121.743185 0)scale(0.996264)" xlink:href="#Nimbus_Roman_No9_L_Regular-109"/>
      <use transform="translate(199.251555 0)scale(0.996264)" xlink:href="#Nimbus_Roman_No9_L_Regular-98"/>
      <use transform="translate(249.064756 0)scale(0.996264)" xlink:href="#Nimbus_Roman_No9_L_Regular-101"/>
      <use transform="translate(293.298325 0)scale(0.996264)" xlink:href="#Nimbus_Roman_No9_L_Regular-114"/>
      <use transform="translate(351.380155 0)scale(0.996264)" xlink:href="#Nimbus_Roman_No9_L_Regular-97"/>
      <use transform="translate(395.613723 0)scale(0.996264)" xlink:href="#Nimbus_Roman_No9_L_Regular-99"/>
      <use transform="translate(439.847292 0)scale(0.996264)" xlink:href="#Nimbus_Roman_No9_L_Regular-116"/>
      <use transform="translate(467.542462 0)scale(0.996264)" xlink:href="#Nimbus_Roman_No9_L_Regular-105"/>
      <use transform="translate(492.747002 0)scale(0.996264)" xlink:href="#Nimbus_Roman_No9_L_Regular-118"/>
      <use transform="translate(541.066809 0)scale(0.996264)" xlink:href="#Nimbus_Roman_No9_L_Regular-101"/>
      <use transform="translate(610.206978 0)scale(0.996264)" xlink:href="#Nimbus_Roman_No9_L_Regular-110"/>
      <use transform="translate(660.020179 0)scale(0.996264)" xlink:href="#Nimbus_Roman_No9_L_Regular-111"/>
      <use transform="translate(709.833379 0)scale(0.996264)" xlink:href="#Nimbus_Roman_No9_L_Regular-100"/>
      <use transform="translate(759.64658 0)scale(0.996264)" xlink:href="#Nimbus_Roman_No9_L_Regular-101"/>
      <use transform="translate(803.880149 0)scale(0.996264)" xlink:href="#Nimbus_Roman_No9_L_Regular-115"/>
      <use transform="translate(867.540455 0)scale(0.996264)" xlink:href="#Nimbus_Roman_No9_L_Regular-105"/>
      <use transform="translate(895.235625 0)scale(0.996264)" xlink:href="#Nimbus_Roman_No9_L_Regular-110"/>
      <use transform="translate(969.955425 0)scale(0.996264)" xlink:href="#Nimbus_Roman_No9_L_Regular-103"/>
      <use transform="translate(1019.768626 0)scale(0.996264)" xlink:href="#Nimbus_Roman_No9_L_Regular-101"/>
      <use transform="translate(1064.002195 0)scale(0.996264)" xlink:href="#Nimbus_Roman_No9_L_Regular-110"/>
     </g>
    </g>
   </g>
   <g id="LineCollection_1">
    <path clip-path="url(#p1bf185cf13)" d="M 66.097215 287.569331 
L 66.097215 184.641856 
" style="fill:none;stroke:#8ca2ac;stroke-dasharray:1.5,2.475;stroke-dashoffset:0;stroke-opacity:0.5;stroke-width:1.5;"/>
   </g>
   <g id="LineCollection_2">
    <path clip-path="url(#p1bf185cf13)" d="M 80.10118 287.569331 
L 80.10118 184.641856 
" style="fill:none;stroke:#8ca2ac;stroke-opacity:0.5;stroke-width:1.5;"/>
   </g>
   <g id="LineCollection_3">
    <path clip-path="url(#p1bf185cf13)" d="M 103.416368 287.569331 
L 103.416368 184.641856 
" style="fill:none;stroke:#778597;stroke-dasharray:1.5,2.475;stroke-dashoffset:0;stroke-opacity:0.5;stroke-width:1.5;"/>
   </g>
   <g id="LineCollection_4">
    <path clip-path="url(#p1bf185cf13)" d="M 117.368677 287.569331 
L 117.368677 184.641856 
" style="fill:none;stroke:#778597;stroke-opacity:0.5;stroke-width:1.5;"/>
   </g>
   <g id="LineCollection_5">
    <path clip-path="url(#p1bf185cf13)" d="M 140.735521 287.569331 
L 140.735521 184.641856 
" style="fill:none;stroke:#636983;stroke-dasharray:1.5,2.475;stroke-dashoffset:0;stroke-opacity:0.5;stroke-width:1.5;"/>
   </g>
   <g id="LineCollection_6">
    <path clip-path="url(#p1bf185cf13)" d="M 143.952801 287.569331 
L 143.952801 184.641856 
" style="fill:none;stroke:#636983;stroke-opacity:0.5;stroke-width:1.5;"/>
   </g>
   <g id="LineCollection_7">
    <path clip-path="url(#p1bf185cf13)" d="M 178.054675 287.569331 
L 178.054675 184.641856 
" style="fill:none;stroke:#4e4e6c;stroke-dasharray:1.5,2.475;stroke-dashoffset:0;stroke-opacity:0.5;stroke-width:1.5;"/>
   </g>
   <g id="LineCollection_8">
    <path clip-path="url(#p1bf185cf13)" d="M 168.08847 287.569331 
L 168.08847 184.641856 
" style="fill:none;stroke:#4e4e6c;stroke-opacity:0.5;stroke-width:1.5;"/>
   </g>
   <g id="LineCollection_9">
    <path clip-path="url(#p1bf185cf13)" d="M 215.373828 287.569331 
L 215.373828 184.641856 
" style="fill:none;stroke:#39394f;stroke-dasharray:1.5,2.475;stroke-dashoffset:0;stroke-opacity:0.5;stroke-width:1.5;"/>
   </g>
   <g id="LineCollection_10">
    <path clip-path="url(#p1bf185cf13)" d="M 190.199474 287.569331 
L 190.199474 184.641856 
" style="fill:none;stroke:#39394f;stroke-opacity:0.5;stroke-width:1.5;"/>
   </g>
   <g id="LineCollection_11">
    <path clip-path="url(#p1bf185cf13)" d="M 252.692981 287.569331 
L 252.692981 184.641856 
" style="fill:none;stroke:#242432;stroke-dasharray:1.5,2.475;stroke-dashoffset:0;stroke-opacity:0.5;stroke-width:1.5;"/>
   </g>
   <g id="LineCollection_12">
    <path clip-path="url(#p1bf185cf13)" d="M 219.799422 287.569331 
L 219.799422 184.641856 
" style="fill:none;stroke:#242432;stroke-opacity:0.5;stroke-width:1.5;"/>
   </g>
   <g id="LineCollection_13">
    <path clip-path="url(#p1bf185cf13)" d="M 290.012134 287.569331 
L 290.012134 184.641856 
" style="fill:none;stroke:#0f0f15;stroke-dasharray:1.5,2.475;stroke-dashoffset:0;stroke-opacity:0.5;stroke-width:1.5;"/>
   </g>
   <g id="LineCollection_14">
    <path clip-path="url(#p1bf185cf13)" d="M 276.884574 287.569331 
L 276.884574 184.641856 
" style="fill:none;stroke:#0f0f15;stroke-opacity:0.5;stroke-width:1.5;"/>
   </g>
   <g id="LineCollection_15">
    <path clip-path="url(#p1bf185cf13)" d="M 308.67171 287.569331 
L 308.67171 184.641856 
" style="fill:none;stroke:#040406;stroke-dasharray:1.5,2.475;stroke-dashoffset:0;stroke-opacity:0.5;stroke-width:1.5;"/>
   </g>
   <g id="LineCollection_16">
    <path clip-path="url(#p1bf185cf13)" d="M 318.980658 287.569331 
L 318.980658 184.641856 
" style="fill:none;stroke:#040406;stroke-opacity:0.5;stroke-width:1.5;"/>
   </g>
   <g id="line2d_13">
    <path clip-path="url(#p1bf185cf13)" d="M 47.437639 287.569331 
L 74.665693 287.468853 
L 87.145218 287.243189 
L 103.028249 286.740798 
L 122.314787 286.063806 
L 158.61886 285.156209 
L 167.694878 285.077144 
L 176.770896 285.02114 
L 203.99895 285.118324 
L 217.612977 285.246804 
L 248.244538 285.663541 
L 297.028134 286.332297 
L 323.121686 286.566197 
L 380.981301 286.961521 
L 403.671346 287.061999 
L 403.671346 287.061999 
" style="fill:none;stroke:#8194a1;stroke-linecap:square;stroke-width:1.5;"/>
   </g>
   <g id="line2d_14">
    <path clip-path="url(#p1bf185cf13)" d="M 47.437639 287.569331 
L 89.414222 287.465558 
L 101.893747 287.159183 
L 109.835263 286.742445 
L 118.911281 285.989683 
L 125.718294 285.123265 
L 130.256303 284.400152 
L 139.332321 282.533895 
L 148.408339 280.400794 
L 151.811846 279.509668 
L 154.080851 278.908447 
L 158.61886 277.630233 
L 166.560375 275.231936 
L 169.963882 274.134913 
L 183.577909 270.145437 
L 198.326438 266.487046 
L 200.595443 265.836409 
L 203.99895 265.075411 
L 209.671461 264.044275 
L 213.074968 263.525412 
L 215.343972 263.237155 
L 218.747479 262.703468 
L 223.285488 262.336147 
L 226.688995 262.029771 
L 228.957999 261.810695 
L 240.303022 261.496084 
L 244.841031 261.535616 
L 249.37904 261.721748 
L 252.782547 261.784341 
L 258.455058 262.174723 
L 260.724062 262.359207 
L 272.069085 263.586358 
L 277.741596 264.288058 
L 282.279605 264.780565 
L 292.490125 266.221849 
L 301.566144 267.498416 
L 310.642162 268.669562 
L 320.852682 270.069667 
L 345.811731 273.291556 
L 360.560261 274.948621 
L 368.501776 275.745857 
L 386.653813 277.406217 
L 403.671346 278.692666 
L 403.671346 278.692666 
" style="fill:none;stroke:#6d788d;stroke-linecap:square;stroke-width:1.5;"/>
   </g>
   <g id="line2d_15">
    <path clip-path="url(#p1bf185cf13)" d="M 47.437639 287.569331 
L 100.759245 287.463911 
L 112.104267 287.200362 
L 116.642276 286.958226 
L 123.44929 286.404773 
L 129.121801 285.691543 
L 133.65981 284.874541 
L 137.063317 284.23214 
L 141.601326 283.072524 
L 148.408339 280.937775 
L 152.946348 279.237883 
L 157.484357 277.373273 
L 163.156869 274.841554 
L 174.501891 268.865577 
L 194.922932 256.508416 
L 197.191936 254.999597 
L 200.595443 253.100396 
L 202.864447 251.649228 
L 215.343972 244.918842 
L 226.688995 239.721982 
L 236.899515 236.399615 
L 242.572026 235.078575 
L 244.841031 234.744197 
L 248.244538 234.289575 
L 257.320556 233.744358 
L 261.858565 233.874485 
L 265.262071 233.94202 
L 267.531076 234.13474 
L 270.934583 234.436174 
L 284.54861 236.262899 
L 292.490125 238.059975 
L 311.776664 243.021288 
L 318.583677 245.011084 
L 324.256189 246.518256 
L 326.525193 247.135949 
L 334.466709 249.405766 
L 337.870216 250.39737 
L 354.887749 254.935357 
L 366.232772 257.761922 
L 371.905283 259.137319 
L 383.250306 261.624564 
L 391.191822 263.31622 
L 395.729831 264.284763 
L 403.671346 265.861117 
L 403.671346 265.861117 
" style="fill:none;stroke:#636983;stroke-linecap:square;stroke-width:1.5;"/>
   </g>
   <g id="line2d_16">
    <path clip-path="url(#p1bf185cf13)" d="M 47.437639 287.569331 
L 120.045783 287.462264 
L 127.987299 287.310723 
L 137.063317 286.956579 
L 142.735828 286.493721 
L 149.542842 285.635539 
L 154.080851 284.716411 
L 159.753362 283.372311 
L 164.291371 281.906318 
L 166.560375 281.023429 
L 171.098384 279.002336 
L 173.367389 277.776833 
L 177.905398 275.001331 
L 185.846914 269.445385 
L 191.519425 264.955166 
L 199.460941 257.567554 
L 201.729945 255.52999 
L 208.536959 248.628296 
L 211.940465 245.035792 
L 213.074968 243.948651 
L 216.478475 240.293554 
L 217.612977 239.236063 
L 222.150986 234.416408 
L 230.092502 226.168967 
L 235.765013 220.148516 
L 243.706529 212.156388 
L 244.841031 210.802404 
L 247.110035 208.550706 
L 251.648044 204.660061 
L 260.724062 197.460228 
L 265.262071 194.118095 
L 267.531076 192.60104 
L 270.934583 190.545357 
L 273.203587 189.49116 
L 280.010601 187.36959 
L 281.145103 187.110982 
L 284.54861 186.015606 
L 286.817614 185.536276 
L 293.624628 184.846106 
L 295.893632 184.711037 
L 297.028134 184.641856 
L 301.566144 185.038827 
L 303.835148 185.447328 
L 306.104153 185.687816 
L 311.776664 186.811195 
L 315.180171 187.664435 
L 319.71818 189.151841 
L 324.256189 190.703486 
L 325.390691 191.054336 
L 327.659695 192.040998 
L 331.063202 193.376863 
L 334.466709 194.84615 
L 336.735713 195.981058 
L 341.273722 198.051566 
L 356.022252 205.4853 
L 375.30879 215.781836 
L 383.250306 219.799313 
L 390.057319 223.20898 
L 401.402342 228.596913 
L 403.671346 229.690642 
L 403.671346 229.690642 
" style="fill:none;stroke:#4e4e6c;stroke-linecap:square;stroke-width:1.5;"/>
   </g>
   <g id="patch_11">
    <path d="M 47.437639 292.715705 
L 47.437639 179.495482 
" style="fill:none;stroke:#000000;stroke-linecap:square;stroke-linejoin:miter;stroke-width:0.8;"/>
   </g>
   <g id="patch_12">
    <path d="M 47.437639 292.715705 
L 445.64793 292.715705 
" style="fill:none;stroke:#000000;stroke-linecap:square;stroke-linejoin:miter;stroke-width:0.8;"/>
   </g>
   <g id="text_15">
    <!-- $g={4}$ -->
    <defs>
     <path d="M 47.203125 40 
L 41.09375 40 
C 40.796875 40 40.296875 40.25 39.5 41.015625 
C 36.796875 42.984375 33.5 44 29.703125 44 
C 18.59375 44 9.59375 35.890625 9.59375 26.6875 
C 9.59375 21.59375 11.796875 18.65625 17.5 16.09375 
C 11.59375 12.0625 9.796875 10.046875 9.796875 7.625 
C 9.796875 6.3125 10.59375 5.109375 12.5 3.6875 
C 2.59375 -2.859375 0.796875 -4.890625 0.796875 -9.53125 
C 0.796875 -16.484375 7.40625 -21 17.5 -21 
C 30.09375 -21 38.5 -15.078125 38.5 -6.296875 
C 38.5 0.0625 33.703125 4.5 24.203125 7.015625 
C 19.796875 8.125 17.203125 9.75 17.203125 11.265625 
C 17.203125 12.765625 19.5 15.390625 20.796875 15.390625 
C 21 15.390625 21.203125 15.390625 21.5 15.296875 
C 22.296875 15.09375 23.703125 15 24.59375 15 
C 33.703125 15 43.09375 22.96875 43.09375 30.609375 
C 43.09375 32.171875 42.796875 34.125 42.203125 36.09375 
L 47.203125 36.09375 
z
M 14.796875 2.578125 
C 14.90625 2.578125 15.09375 2.484375 15.296875 2.375 
C 15.59375 2.28125 16.59375 1.96875 18.203125 1.46875 
C 28.796875 -1.859375 32.5 -4.6875 32.5 -9.328125 
C 32.5 -14.765625 26.703125 -18.8125 19 -18.8125 
C 11 -18.8125 6.296875 -14.96875 6.296875 -8.515625 
C 6.296875 -6.09375 6.90625 -4.375 8.5 -2.46875 
C 9.796875 -0.75 14 2.578125 14.796875 2.578125 
z
M 29.59375 41.796875 
C 33.296875 41.796875 35.203125 38.984375 35.203125 34.328125 
C 35.203125 30.90625 34 26.59375 32.09375 23.265625 
C 29.90625 19.25 26.796875 17.09375 23.40625 17.09375 
C 19.59375 17.09375 17.40625 19.828125 17.40625 24.4375 
C 17.40625 33.453125 23.09375 41.796875 29.59375 41.796875 
z
" id="Nimbus_Roman_No9_L_Regular_Italic-103"/>
     <path d="M 68.703125 32.984375 
C 70.203125 32.984375 72.09375 32.984375 72.09375 34.984375 
C 72.09375 37 70.203125 37 68.796875 37 
L 8.90625 37 
C 7.5 37 5.59375 37 5.59375 34.984375 
C 5.59375 32.984375 7.5 32.984375 9 32.984375 
z
M 68.796875 13 
C 70.203125 13 72.09375 13 72.09375 15 
C 72.09375 17 70.203125 17 68.703125 17 
L 9 17 
C 7.5 17 5.59375 17 5.59375 15 
C 5.59375 13 7.5 13 8.90625 13 
z
" id="CMR10-61"/>
    </defs>
    <g transform="translate(405.3731 287.068588)scale(0.12 -0.12)">
     <use transform="scale(0.996264)" xlink:href="#Nimbus_Roman_No9_L_Regular_Italic-103"/>
     <use transform="translate(71.952347 0)scale(0.996264)" xlink:href="#CMR10-61"/>
     <use transform="translate(171.5002 0)scale(0.996264)" xlink:href="#Nimbus_Roman_No9_L_Regular-52"/>
    </g>
   </g>
   <g id="text_16">
    <!-- $g={8}$ -->
    <g transform="translate(405.3731 278.771731)scale(0.12 -0.12)">
     <use transform="scale(0.996264)" xlink:href="#Nimbus_Roman_No9_L_Regular_Italic-103"/>
     <use transform="translate(71.952347 0)scale(0.996264)" xlink:href="#CMR10-61"/>
     <use transform="translate(171.5002 0)scale(0.996264)" xlink:href="#Nimbus_Roman_No9_L_Regular-56"/>
    </g>
   </g>
   <g id="text_17">
    <!-- $g={10}$ -->
    <g transform="translate(405.3731 266.081839)scale(0.12 -0.12)">
     <use transform="scale(0.996264)" xlink:href="#Nimbus_Roman_No9_L_Regular_Italic-103"/>
     <use transform="translate(71.952347 0)scale(0.996264)" xlink:href="#CMR10-61"/>
     <use transform="translate(171.5002 0)scale(0.996264)" xlink:href="#Nimbus_Roman_No9_L_Regular-49"/>
     <use transform="translate(221.313401 0)scale(0.996264)" xlink:href="#Nimbus_Roman_No9_L_Regular-48"/>
    </g>
   </g>
   <g id="text_18">
    <!-- $g={14}$ -->
    <g transform="translate(405.3731 230.146912)scale(0.12 -0.12)">
     <use transform="scale(0.996264)" xlink:href="#Nimbus_Roman_No9_L_Regular_Italic-103"/>
     <use transform="translate(71.952347 0)scale(0.996264)" xlink:href="#CMR10-61"/>
     <use transform="translate(171.5002 0)scale(0.996264)" xlink:href="#Nimbus_Roman_No9_L_Regular-49"/>
     <use transform="translate(221.313401 0)scale(0.996264)" xlink:href="#Nimbus_Roman_No9_L_Regular-52"/>
    </g>
   </g>
   <g id="text_19">
    <!-- gen $g$: -->
    <defs>
     <path d="M 13.59375 46 
C 10.59375 46 8.09375 43.390625 8.09375 40.296875 
C 8.09375 37.390625 10.59375 34.890625 13.5 34.890625 
C 16.59375 34.890625 19.203125 37.390625 19.203125 40.296875 
C 19.203125 43.390625 16.59375 46 13.59375 46 
z
M 13.59375 10.09375 
C 10.59375 10.09375 8.09375 7.5 8.09375 4.390625 
C 8.09375 1.5 10.59375 -1 13.5 -1 
C 16.59375 -1 19.203125 1.5 19.203125 4.390625 
C 19.203125 7.5 16.59375 10.09375 13.59375 10.09375 
z
" id="Nimbus_Roman_No9_L_Regular-58"/>
    </defs>
    <g transform="translate(32.661149 170.9373)scale(0.12 -0.12)">
     <use transform="scale(0.996264)" xlink:href="#Nimbus_Roman_No9_L_Regular-103"/>
     <use transform="translate(49.8132 0)scale(0.996264)" xlink:href="#Nimbus_Roman_No9_L_Regular-101"/>
     <use transform="translate(94.046769 0)scale(0.996264)" xlink:href="#Nimbus_Roman_No9_L_Regular-110"/>
     <use transform="translate(168.76657 0)scale(0.996264)" xlink:href="#Nimbus_Roman_No9_L_Regular_Italic-103"/>
     <use transform="translate(218.57977 0)scale(0.996264)" xlink:href="#Nimbus_Roman_No9_L_Regular-58"/>
    </g>
   </g>
   <g id="text_20">
    <!-- 2 -->
    <g transform="translate(70.110406 170.9373)scale(0.12 -0.12)">
     <use transform="scale(0.996264)" xlink:href="#Nimbus_Roman_No9_L_Regular-50"/>
    </g>
   </g>
   <g id="text_21">
    <!-- 6 -->
    <g transform="translate(107.40373 170.9373)scale(0.12 -0.12)">
     <use transform="scale(0.996264)" xlink:href="#Nimbus_Roman_No9_L_Regular-54"/>
    </g>
   </g>
   <g id="text_22">
    <!-- 10 -->
    <g transform="translate(136.366577 170.9373)scale(0.12 -0.12)">
     <use transform="scale(0.996264)" xlink:href="#Nimbus_Roman_No9_L_Regular-49"/>
     <use transform="translate(49.8132 0)scale(0.996264)" xlink:href="#Nimbus_Roman_No9_L_Regular-48"/>
    </g>
   </g>
   <g id="text_23">
    <!-- 14 -->
    <g transform="translate(167.093988 170.9373)scale(0.12 -0.12)">
     <use transform="scale(0.996264)" xlink:href="#Nimbus_Roman_No9_L_Regular-49"/>
     <use transform="translate(49.8132 0)scale(0.996264)" xlink:href="#Nimbus_Roman_No9_L_Regular-52"/>
    </g>
   </g>
   <g id="text_24">
    <!-- 18 -->
    <g transform="translate(196.809067 170.9373)scale(0.12 -0.12)">
     <use transform="scale(0.996264)" xlink:href="#Nimbus_Roman_No9_L_Regular-49"/>
     <use transform="translate(49.8132 0)scale(0.996264)" xlink:href="#Nimbus_Roman_No9_L_Regular-56"/>
    </g>
   </g>
   <g id="text_25">
    <!-- 22 -->
    <g transform="translate(230.268617 170.9373)scale(0.12 -0.12)">
     <use transform="scale(0.996264)" xlink:href="#Nimbus_Roman_No9_L_Regular-50"/>
     <use transform="translate(49.8132 0)scale(0.996264)" xlink:href="#Nimbus_Roman_No9_L_Regular-50"/>
    </g>
   </g>
   <g id="text_26">
    <!-- 26 -->
    <g transform="translate(277.47077 170.9373)scale(0.12 -0.12)">
     <use transform="scale(0.996264)" xlink:href="#Nimbus_Roman_No9_L_Regular-50"/>
     <use transform="translate(49.8132 0)scale(0.996264)" xlink:href="#Nimbus_Roman_No9_L_Regular-54"/>
    </g>
   </g>
   <g id="text_27">
    <!-- 28 -->
    <g transform="translate(307.8486 170.9373)scale(0.12 -0.12)">
     <use transform="scale(0.996264)" xlink:href="#Nimbus_Roman_No9_L_Regular-50"/>
     <use transform="translate(49.8132 0)scale(0.996264)" xlink:href="#Nimbus_Roman_No9_L_Regular-56"/>
    </g>
   </g>
  </g>
  <g id="axes_2">
   <g id="patch_13">
    <path d="M 47.437639 151.410839 
L 445.64793 151.410839 
L 445.64793 38.190617 
L 47.437639 38.190617 
z
" style="fill:#ffffff;"/>
   </g>
   <g id="patch_14">
    <path clip-path="url(#p8e21262bcb)" d="M 66.097215 151.410839 
L 66.097215 38.190617 
L 80.10118 38.190617 
L 80.10118 151.410839 
z
" style="fill:#008000;opacity:0.5;stroke:#008000;stroke-linejoin:miter;"/>
   </g>
   <g id="patch_15">
    <path clip-path="url(#p8e21262bcb)" d="M 103.416368 151.410839 
L 103.416368 38.190617 
L 117.368677 38.190617 
L 117.368677 151.410839 
z
" style="fill:#008000;opacity:0.5;stroke:#008000;stroke-linejoin:miter;"/>
   </g>
   <g id="patch_16">
    <path clip-path="url(#p8e21262bcb)" d="M 140.735521 151.410839 
L 140.735521 38.190617 
L 143.952801 38.190617 
L 143.952801 151.410839 
z
" style="fill:#008000;opacity:0.5;stroke:#008000;stroke-linejoin:miter;"/>
   </g>
   <g id="patch_17">
    <path clip-path="url(#p8e21262bcb)" d="M 178.054675 151.410839 
L 178.054675 38.190617 
L 168.08847 38.190617 
L 168.08847 151.410839 
z
" style="fill:#ffff00;opacity:0.5;stroke:#ffff00;stroke-linejoin:miter;"/>
   </g>
   <g id="patch_18">
    <path clip-path="url(#p8e21262bcb)" d="M 215.373828 151.410839 
L 215.373828 38.190617 
L 190.199474 38.190617 
L 190.199474 151.410839 
z
" style="fill:#ffff00;opacity:0.5;stroke:#ffff00;stroke-linejoin:miter;"/>
   </g>
   <g id="patch_19">
    <path clip-path="url(#p8e21262bcb)" d="M 252.692981 151.410839 
L 252.692981 38.190617 
L 219.799422 38.190617 
L 219.799422 151.410839 
z
" style="fill:#ffff00;opacity:0.5;stroke:#ffff00;stroke-linejoin:miter;"/>
   </g>
   <g id="patch_20">
    <path clip-path="url(#p8e21262bcb)" d="M 290.012134 151.410839 
L 290.012134 38.190617 
L 276.884574 38.190617 
L 276.884574 151.410839 
z
" style="fill:#ffff00;opacity:0.5;stroke:#ffff00;stroke-linejoin:miter;"/>
   </g>
   <g id="patch_21">
    <path clip-path="url(#p8e21262bcb)" d="M 308.67171 151.410839 
L 308.67171 38.190617 
L 318.980658 38.190617 
L 318.980658 151.410839 
z
" style="fill:#008000;opacity:0.5;stroke:#008000;stroke-linejoin:miter;"/>
   </g>
   <g id="matplotlib.axis_3">
    <g id="xtick_9">
     <g id="line2d_17">
      <defs>
       <path d="M 0 0 
L 0 -3.5 
" id="m46ab684f61" style="stroke:#000000;stroke-width:0.8;"/>
      </defs>
      <g>
       <use style="stroke:#000000;stroke-width:0.8;" x="66.097215" xlink:href="#m46ab684f61" y="38.190617"/>
      </g>
     </g>
     <g id="text_28">
      <!-- $\mathdefault{164}$ -->
      <g transform="translate(59.188178 19.098533)rotate(-315)scale(0.1 -0.1)">
       <use transform="scale(0.996264)" xlink:href="#Nimbus_Roman_No9_L_Regular-49"/>
       <use transform="translate(49.8132 0)scale(0.996264)" xlink:href="#Nimbus_Roman_No9_L_Regular-54"/>
       <use transform="translate(99.626401 0)scale(0.996264)" xlink:href="#Nimbus_Roman_No9_L_Regular-52"/>
      </g>
     </g>
    </g>
    <g id="xtick_10">
     <g id="line2d_18">
      <g>
       <use style="stroke:#000000;stroke-width:0.8;" x="103.416368" xlink:href="#m46ab684f61" y="38.190617"/>
      </g>
     </g>
     <g id="text_29">
      <!-- $\mathdefault{493}$ -->
      <g transform="translate(96.507331 19.098533)rotate(-315)scale(0.1 -0.1)">
       <use transform="scale(0.996264)" xlink:href="#Nimbus_Roman_No9_L_Regular-52"/>
       <use transform="translate(49.8132 0)scale(0.996264)" xlink:href="#Nimbus_Roman_No9_L_Regular-57"/>
       <use transform="translate(99.626401 0)scale(0.996264)" xlink:href="#Nimbus_Roman_No9_L_Regular-51"/>
      </g>
     </g>
    </g>
    <g id="xtick_11">
     <g id="line2d_19">
      <g>
       <use style="stroke:#000000;stroke-width:0.8;" x="140.735521" xlink:href="#m46ab684f61" y="38.190617"/>
      </g>
     </g>
     <g id="text_30">
      <!-- $\mathdefault{822}$ -->
      <g transform="translate(133.826484 19.098533)rotate(-315)scale(0.1 -0.1)">
       <use transform="scale(0.996264)" xlink:href="#Nimbus_Roman_No9_L_Regular-56"/>
       <use transform="translate(49.8132 0)scale(0.996264)" xlink:href="#Nimbus_Roman_No9_L_Regular-50"/>
       <use transform="translate(99.626401 0)scale(0.996264)" xlink:href="#Nimbus_Roman_No9_L_Regular-50"/>
      </g>
     </g>
    </g>
    <g id="xtick_12">
     <g id="line2d_20">
      <g>
       <use style="stroke:#000000;stroke-width:0.8;" x="178.054675" xlink:href="#m46ab684f61" y="38.190617"/>
      </g>
     </g>
     <g id="text_31">
      <!-- $\mathdefault{1151}$ -->
      <g transform="translate(169.384475 15.576208)rotate(-315)scale(0.1 -0.1)">
       <use transform="scale(0.996264)" xlink:href="#Nimbus_Roman_No9_L_Regular-49"/>
       <use transform="translate(49.8132 0)scale(0.996264)" xlink:href="#Nimbus_Roman_No9_L_Regular-49"/>
       <use transform="translate(99.626401 0)scale(0.996264)" xlink:href="#Nimbus_Roman_No9_L_Regular-53"/>
       <use transform="translate(149.439601 0)scale(0.996264)" xlink:href="#Nimbus_Roman_No9_L_Regular-49"/>
      </g>
     </g>
    </g>
    <g id="xtick_13">
     <g id="line2d_21">
      <g>
       <use style="stroke:#000000;stroke-width:0.8;" x="215.373828" xlink:href="#m46ab684f61" y="38.190617"/>
      </g>
     </g>
     <g id="text_32">
      <!-- $\mathdefault{1480}$ -->
      <g transform="translate(206.703628 15.576208)rotate(-315)scale(0.1 -0.1)">
       <use transform="scale(0.996264)" xlink:href="#Nimbus_Roman_No9_L_Regular-49"/>
       <use transform="translate(49.8132 0)scale(0.996264)" xlink:href="#Nimbus_Roman_No9_L_Regular-52"/>
       <use transform="translate(99.626401 0)scale(0.996264)" xlink:href="#Nimbus_Roman_No9_L_Regular-56"/>
       <use transform="translate(149.439601 0)scale(0.996264)" xlink:href="#Nimbus_Roman_No9_L_Regular-48"/>
      </g>
     </g>
    </g>
    <g id="xtick_14">
     <g id="line2d_22">
      <g>
       <use style="stroke:#000000;stroke-width:0.8;" x="252.692981" xlink:href="#m46ab684f61" y="38.190617"/>
      </g>
     </g>
     <g id="text_33">
      <!-- $\mathdefault{1809}$ -->
      <g transform="translate(244.022781 15.576208)rotate(-315)scale(0.1 -0.1)">
       <use transform="scale(0.996264)" xlink:href="#Nimbus_Roman_No9_L_Regular-49"/>
       <use transform="translate(49.8132 0)scale(0.996264)" xlink:href="#Nimbus_Roman_No9_L_Regular-56"/>
       <use transform="translate(99.626401 0)scale(0.996264)" xlink:href="#Nimbus_Roman_No9_L_Regular-48"/>
       <use transform="translate(149.439601 0)scale(0.996264)" xlink:href="#Nimbus_Roman_No9_L_Regular-57"/>
      </g>
     </g>
    </g>
    <g id="xtick_15">
     <g id="line2d_23">
      <g>
       <use style="stroke:#000000;stroke-width:0.8;" x="290.012134" xlink:href="#m46ab684f61" y="38.190617"/>
      </g>
     </g>
     <g id="text_34">
      <!-- $\mathdefault{2138}$ -->
      <g transform="translate(281.341934 15.576208)rotate(-315)scale(0.1 -0.1)">
       <use transform="scale(0.996264)" xlink:href="#Nimbus_Roman_No9_L_Regular-50"/>
       <use transform="translate(49.8132 0)scale(0.996264)" xlink:href="#Nimbus_Roman_No9_L_Regular-49"/>
       <use transform="translate(99.626401 0)scale(0.996264)" xlink:href="#Nimbus_Roman_No9_L_Regular-51"/>
       <use transform="translate(149.439601 0)scale(0.996264)" xlink:href="#Nimbus_Roman_No9_L_Regular-56"/>
      </g>
     </g>
    </g>
    <g id="xtick_16">
     <g id="line2d_24">
      <g>
       <use style="stroke:#000000;stroke-width:0.8;" x="308.67171" xlink:href="#m46ab684f61" y="38.190617"/>
      </g>
     </g>
     <g id="text_35">
      <!-- $\mathdefault{2303}$ -->
      <g transform="translate(300.00151 15.576208)rotate(-315)scale(0.1 -0.1)">
       <use transform="scale(0.996264)" xlink:href="#Nimbus_Roman_No9_L_Regular-50"/>
       <use transform="translate(49.8132 0)scale(0.996264)" xlink:href="#Nimbus_Roman_No9_L_Regular-51"/>
       <use transform="translate(99.626401 0)scale(0.996264)" xlink:href="#Nimbus_Roman_No9_L_Regular-48"/>
       <use transform="translate(149.439601 0)scale(0.996264)" xlink:href="#Nimbus_Roman_No9_L_Regular-51"/>
      </g>
     </g>
    </g>
   </g>
   <g id="matplotlib.axis_4">
    <g id="ytick_5">
     <g id="line2d_25">
      <g>
       <use style="stroke:#000000;stroke-width:0.8;" x="47.437639" xlink:href="#m778ea746c7" y="146.264466"/>
      </g>
     </g>
     <g id="text_36">
      <!-- $\mathdefault{0}$ -->
      <g transform="translate(35.456319 149.641754)scale(0.1 -0.1)">
       <use transform="scale(0.996264)" xlink:href="#Nimbus_Roman_No9_L_Regular-48"/>
      </g>
     </g>
    </g>
    <g id="ytick_6">
     <g id="line2d_26">
      <g>
       <use style="stroke:#000000;stroke-width:0.8;" x="47.437639" xlink:href="#m778ea746c7" y="107.23983"/>
      </g>
     </g>
     <g id="text_37">
      <!-- $\mathdefault{10}$ -->
      <g transform="translate(30.474999 110.617119)scale(0.1 -0.1)">
       <use transform="scale(0.996264)" xlink:href="#Nimbus_Roman_No9_L_Regular-49"/>
       <use transform="translate(49.8132 0)scale(0.996264)" xlink:href="#Nimbus_Roman_No9_L_Regular-48"/>
      </g>
     </g>
    </g>
    <g id="ytick_7">
     <g id="line2d_27">
      <g>
       <use style="stroke:#000000;stroke-width:0.8;" x="47.437639" xlink:href="#m778ea746c7" y="68.215195"/>
      </g>
     </g>
     <g id="text_38">
      <!-- $\mathdefault{20}$ -->
      <g transform="translate(30.474999 71.592484)scale(0.1 -0.1)">
       <use transform="scale(0.996264)" xlink:href="#Nimbus_Roman_No9_L_Regular-50"/>
       <use transform="translate(49.8132 0)scale(0.996264)" xlink:href="#Nimbus_Roman_No9_L_Regular-48"/>
      </g>
     </g>
    </g>
    <g id="text_39">
     <!-- Number generations -->
     <g transform="translate(23.886804 143.439872)rotate(-90)scale(0.12 -0.12)">
      <use transform="scale(0.996264)" xlink:href="#Nimbus_Roman_No9_L_Regular-78"/>
      <use transform="translate(71.929985 0)scale(0.996264)" xlink:href="#Nimbus_Roman_No9_L_Regular-117"/>
      <use transform="translate(121.743185 0)scale(0.996264)" xlink:href="#Nimbus_Roman_No9_L_Regular-109"/>
      <use transform="translate(199.251555 0)scale(0.996264)" xlink:href="#Nimbus_Roman_No9_L_Regular-98"/>
      <use transform="translate(249.064756 0)scale(0.996264)" xlink:href="#Nimbus_Roman_No9_L_Regular-101"/>
      <use transform="translate(293.298325 0)scale(0.996264)" xlink:href="#Nimbus_Roman_No9_L_Regular-114"/>
      <use transform="translate(351.380155 0)scale(0.996264)" xlink:href="#Nimbus_Roman_No9_L_Regular-103"/>
      <use transform="translate(401.193355 0)scale(0.996264)" xlink:href="#Nimbus_Roman_No9_L_Regular-101"/>
      <use transform="translate(445.426924 0)scale(0.996264)" xlink:href="#Nimbus_Roman_No9_L_Regular-110"/>
      <use transform="translate(495.240124 0)scale(0.996264)" xlink:href="#Nimbus_Roman_No9_L_Regular-101"/>
      <use transform="translate(539.473693 0)scale(0.996264)" xlink:href="#Nimbus_Roman_No9_L_Regular-114"/>
      <use transform="translate(572.648923 0)scale(0.996264)" xlink:href="#Nimbus_Roman_No9_L_Regular-97"/>
      <use transform="translate(616.882491 0)scale(0.996264)" xlink:href="#Nimbus_Roman_No9_L_Regular-116"/>
      <use transform="translate(644.577661 0)scale(0.996264)" xlink:href="#Nimbus_Roman_No9_L_Regular-105"/>
      <use transform="translate(672.272831 0)scale(0.996264)" xlink:href="#Nimbus_Roman_No9_L_Regular-111"/>
      <use transform="translate(722.086031 0)scale(0.996264)" xlink:href="#Nimbus_Roman_No9_L_Regular-110"/>
      <use transform="translate(771.899232 0)scale(0.996264)" xlink:href="#Nimbus_Roman_No9_L_Regular-115"/>
     </g>
    </g>
   </g>
   <g id="LineCollection_17">
    <path clip-path="url(#p8e21262bcb)" d="M 66.097215 146.264466 
L 66.097215 43.33699 
" style="fill:none;stroke:#8ca2ac;stroke-dasharray:1.5,2.475;stroke-dashoffset:0;stroke-width:1.5;"/>
   </g>
   <g id="LineCollection_18">
    <path clip-path="url(#p8e21262bcb)" d="M 80.10118 146.264466 
L 80.10118 43.33699 
" style="fill:none;stroke:#8ca2ac;stroke-opacity:0.5;stroke-width:1.5;"/>
   </g>
   <g id="LineCollection_19">
    <path clip-path="url(#p8e21262bcb)" d="M 103.416368 146.264466 
L 103.416368 43.33699 
" style="fill:none;stroke:#778597;stroke-dasharray:1.5,2.475;stroke-dashoffset:0;stroke-opacity:0.5;stroke-width:1.5;"/>
   </g>
   <g id="LineCollection_20">
    <path clip-path="url(#p8e21262bcb)" d="M 117.368677 146.264466 
L 117.368677 43.33699 
" style="fill:none;stroke:#778597;stroke-opacity:0.5;stroke-width:1.5;"/>
   </g>
   <g id="LineCollection_21">
    <path clip-path="url(#p8e21262bcb)" d="M 140.735521 146.264466 
L 140.735521 43.33699 
" style="fill:none;stroke:#636983;stroke-dasharray:1.5,2.475;stroke-dashoffset:0;stroke-opacity:0.5;stroke-width:1.5;"/>
   </g>
   <g id="LineCollection_22">
    <path clip-path="url(#p8e21262bcb)" d="M 143.952801 146.264466 
L 143.952801 43.33699 
" style="fill:none;stroke:#636983;stroke-opacity:0.5;stroke-width:1.5;"/>
   </g>
   <g id="LineCollection_23">
    <path clip-path="url(#p8e21262bcb)" d="M 178.054675 146.264466 
L 178.054675 43.33699 
" style="fill:none;stroke:#4e4e6c;stroke-dasharray:1.5,2.475;stroke-dashoffset:0;stroke-opacity:0.5;stroke-width:1.5;"/>
   </g>
   <g id="LineCollection_24">
    <path clip-path="url(#p8e21262bcb)" d="M 168.08847 146.264466 
L 168.08847 43.33699 
" style="fill:none;stroke:#4e4e6c;stroke-opacity:0.5;stroke-width:1.5;"/>
   </g>
   <g id="LineCollection_25">
    <path clip-path="url(#p8e21262bcb)" d="M 215.373828 146.264466 
L 215.373828 43.33699 
" style="fill:none;stroke:#39394f;stroke-dasharray:1.5,2.475;stroke-dashoffset:0;stroke-opacity:0.5;stroke-width:1.5;"/>
   </g>
   <g id="LineCollection_26">
    <path clip-path="url(#p8e21262bcb)" d="M 190.199474 146.264466 
L 190.199474 43.33699 
" style="fill:none;stroke:#39394f;stroke-opacity:0.5;stroke-width:1.5;"/>
   </g>
   <g id="LineCollection_27">
    <path clip-path="url(#p8e21262bcb)" d="M 252.692981 146.264466 
L 252.692981 43.33699 
" style="fill:none;stroke:#242432;stroke-dasharray:1.5,2.475;stroke-dashoffset:0;stroke-opacity:0.5;stroke-width:1.5;"/>
   </g>
   <g id="LineCollection_28">
    <path clip-path="url(#p8e21262bcb)" d="M 219.799422 146.264466 
L 219.799422 43.33699 
" style="fill:none;stroke:#242432;stroke-opacity:0.5;stroke-width:1.5;"/>
   </g>
   <g id="LineCollection_29">
    <path clip-path="url(#p8e21262bcb)" d="M 290.012134 146.264466 
L 290.012134 43.33699 
" style="fill:none;stroke:#0f0f15;stroke-dasharray:1.5,2.475;stroke-dashoffset:0;stroke-opacity:0.5;stroke-width:1.5;"/>
   </g>
   <g id="LineCollection_30">
    <path clip-path="url(#p8e21262bcb)" d="M 276.884574 146.264466 
L 276.884574 43.33699 
" style="fill:none;stroke:#0f0f15;stroke-opacity:0.5;stroke-width:1.5;"/>
   </g>
   <g id="LineCollection_31">
    <path clip-path="url(#p8e21262bcb)" d="M 308.67171 146.264466 
L 308.67171 43.33699 
" style="fill:none;stroke:#040406;stroke-dasharray:1.5,2.475;stroke-dashoffset:0;stroke-opacity:0.5;stroke-width:1.5;"/>
   </g>
   <g id="LineCollection_32">
    <path clip-path="url(#p8e21262bcb)" d="M 318.980658 146.264466 
L 318.980658 43.33699 
" style="fill:none;stroke:#040406;stroke-opacity:0.5;stroke-width:1.5;"/>
   </g>
   <g id="line2d_28">
    <path clip-path="url(#p8e21262bcb)" d="M 47.437639 142.324478 
L 54.244652 140.598389 
L 57.648159 139.99801 
L 59.917164 139.397631 
L 62.186168 138.909823 
L 64.455173 138.497062 
L 65.589675 138.309444 
L 68.993182 137.221257 
L 71.262186 136.733449 
L 72.396688 136.283165 
L 73.531191 136.095546 
L 75.800195 135.345073 
L 78.0692 134.969836 
L 82.607209 133.581459 
L 83.741711 133.018604 
L 84.876213 132.643367 
L 86.010715 132.493272 
L 88.27972 131.667751 
L 89.414222 131.480133 
L 90.548724 131.104896 
L 91.683227 130.54204 
L 93.952231 129.82909 
L 96.221236 129.41633 
L 97.355738 129.078617 
L 98.49024 128.966046 
L 99.624742 128.478238 
L 101.893747 127.952906 
L 103.028249 127.352527 
L 105.297254 126.639577 
L 106.431756 126.26434 
L 108.70076 125.964151 
L 112.104267 124.688345 
L 114.373272 124.050443 
L 115.507774 123.262445 
L 118.911281 122.436924 
L 120.045783 121.874069 
L 121.180285 121.573879 
L 123.44929 120.710834 
L 125.718294 120.298074 
L 127.987299 119.359982 
L 131.390806 118.1217 
L 133.65981 117.40875 
L 134.794312 116.620752 
L 135.928815 116.39561 
L 138.197819 115.194852 
L 139.332321 114.669521 
L 140.466824 114.406855 
L 143.87033 112.943431 
L 145.004833 112.568194 
L 147.273837 111.555055 
L 151.811846 110.054107 
L 154.080851 109.003444 
L 155.215353 108.628207 
L 156.349855 108.102875 
L 157.484357 107.877733 
L 158.61886 107.427449 
L 159.753362 106.676975 
L 160.887864 106.451833 
L 162.022366 105.888978 
L 163.156869 105.626312 
L 166.560375 104.350507 
L 167.694878 103.712604 
L 168.82938 103.299843 
L 171.098384 102.24918 
L 174.501891 101.348612 
L 180.174402 98.159098 
L 181.308905 97.821385 
L 182.443407 97.296053 
L 185.846914 96.282914 
L 190.384923 94.556824 
L 191.519425 94.181587 
L 193.788429 93.130924 
L 197.191936 92.493021 
L 198.326438 92.155308 
L 199.460941 91.554929 
L 202.864447 90.579313 
L 203.99895 90.166553 
L 205.133452 89.94141 
L 207.402456 89.040842 
L 210.805963 87.990179 
L 211.940465 87.727513 
L 213.074968 87.652466 
L 214.20947 87.3898 
L 215.343972 86.67685 
L 217.612977 85.9639 
L 221.016484 85.288473 
L 222.150986 84.800665 
L 223.285488 84.725618 
L 226.688995 83.412289 
L 227.823497 83.074576 
L 230.092502 82.624291 
L 231.227004 82.286578 
L 233.496008 81.348486 
L 245.975533 78.909446 
L 247.110035 78.871923 
L 249.37904 78.421638 
L 250.513542 78.346591 
L 252.782547 77.93383 
L 255.051551 77.22088 
L 256.186053 77.070786 
L 258.455058 76.658025 
L 259.58956 76.582978 
L 261.858565 76.245264 
L 262.993067 76.132693 
L 265.262071 75.569838 
L 269.80008 75.044506 
L 270.934583 74.894412 
L 273.203587 74.294033 
L 274.338089 74.143938 
L 276.607094 74.143938 
L 278.876098 73.918796 
L 280.010601 73.881272 
L 281.145103 73.731177 
L 282.279605 73.843748 
L 283.414107 73.731177 
L 284.54861 73.731177 
L 293.624628 72.492896 
L 297.028134 71.704898 
L 298.162637 71.629851 
L 299.297139 71.667375 
L 300.431641 71.817469 
L 301.566144 71.854993 
L 302.700646 71.742422 
L 303.835148 71.817469 
L 311.776664 71.254614 
L 312.911166 71.029472 
L 316.314673 70.991948 
L 317.449175 71.066996 
L 319.71818 70.954425 
L 323.121686 71.104519 
L 324.256189 70.991948 
L 325.390691 70.991948 
L 326.525193 70.841853 
L 328.794198 70.766806 
L 329.9287 70.729282 
L 331.063202 70.841853 
L 332.197704 70.841853 
L 333.332207 70.954425 
L 335.601211 70.80433 
L 337.870216 70.766806 
L 339.004718 70.654235 
L 342.408225 70.729282 
L 345.811731 70.691759 
L 346.946234 70.841853 
L 349.215238 70.729282 
L 352.618745 70.654235 
L 353.753247 70.579188 
L 354.887749 70.616711 
L 356.022252 70.50414 
L 357.156754 70.579188 
L 358.291256 70.466617 
L 359.425758 70.616711 
L 385.51931 71.51728 
L 386.653813 71.742422 
L 388.922817 71.667375 
L 395.729831 71.817469 
L 396.864333 71.817469 
L 397.998835 71.967564 
L 401.402342 72.005088 
L 403.671346 72.080135 
L 403.671346 72.080135 
" style="fill:none;stroke:#000000;stroke-dasharray:5.55,2.4;stroke-dashoffset:0;stroke-width:1.5;"/>
   </g>
   <g id="line2d_29">
    <path clip-path="url(#p8e21262bcb)" d="M 47.437639 142.324478 
L 55.379155 140.335723 
L 56.513657 140.148105 
L 63.32067 138.234396 
L 65.589675 137.784112 
L 68.993182 136.695925 
L 71.262186 136.170594 
L 72.396688 135.720309 
L 74.665693 135.007359 
L 76.934697 134.294409 
L 82.607209 132.418225 
L 83.741711 131.85537 
L 84.876213 131.442609 
L 86.010715 131.217467 
L 88.27972 130.354422 
L 90.548724 129.641472 
L 92.817729 128.553285 
L 101.893747 125.814056 
L 104.162751 124.650822 
L 106.431756 123.900348 
L 107.566258 123.487587 
L 108.70076 123.299969 
L 112.104267 121.836545 
L 114.373272 121.123595 
L 115.507774 120.223026 
L 118.911281 119.247411 
L 120.045783 118.571984 
L 121.180285 118.234271 
L 123.44929 117.296179 
L 125.718294 116.620752 
L 127.987299 115.495042 
L 130.256303 114.369331 
L 132.525308 113.393715 
L 133.65981 112.980955 
L 134.794312 112.155434 
L 135.928815 111.81772 
L 138.197819 110.504391 
L 139.332321 109.941536 
L 140.466824 109.566299 
L 148.408339 106.001549 
L 149.542842 105.513741 
L 150.677344 105.213551 
L 154.080851 103.524985 
L 155.215353 103.112225 
L 156.349855 102.54937 
L 157.484357 102.24918 
L 158.61886 101.761372 
L 159.753362 100.898327 
L 160.887864 100.52309 
L 162.022366 99.960235 
L 164.291371 99.09719 
L 166.560375 98.046527 
L 167.694878 97.371101 
L 173.367389 94.781966 
L 174.501891 94.406729 
L 180.174402 90.879503 
L 182.443407 89.866363 
L 186.981416 88.027702 
L 189.25042 87.08961 
L 194.922932 84.387905 
L 197.191936 83.712478 
L 198.326438 83.22467 
L 199.460941 82.586768 
L 201.729945 81.836294 
L 203.99895 80.898202 
L 205.133452 80.67306 
L 207.402456 79.65992 
L 210.805963 78.421638 
L 211.940465 78.046401 
L 213.074968 77.821259 
L 214.20947 77.446022 
L 215.343972 76.658025 
L 218.747479 75.532314 
L 219.881981 75.38222 
L 221.016484 74.969459 
L 222.150986 74.406604 
L 223.285488 74.143938 
L 224.41999 73.506035 
L 225.554493 73.055751 
L 226.688995 72.455372 
L 232.361506 70.466617 
L 234.630511 69.678619 
L 235.765013 69.303382 
L 239.16852 68.590432 
L 241.437524 67.990053 
L 244.841031 67.202056 
L 245.975533 66.751772 
L 252.782547 65.138253 
L 255.051551 64.275208 
L 259.58956 63.299592 
L 260.724062 62.961879 
L 262.993067 62.511595 
L 266.396574 61.64855 
L 269.80008 61.010647 
L 270.934583 60.747981 
L 272.069085 60.335221 
L 274.338089 59.884937 
L 276.607094 59.5097 
L 278.876098 59.134463 
L 280.010601 59.021892 
L 281.145103 58.79675 
L 282.279605 58.721702 
L 287.952116 57.708563 
L 291.355623 57.183231 
L 298.162637 55.457142 
L 300.431641 55.307047 
L 303.835148 55.119428 
L 311.776664 53.993718 
L 312.911166 53.731052 
L 324.256189 52.642865 
L 325.390691 52.605341 
L 329.9287 51.967439 
L 333.332207 51.742296 
L 336.735713 51.292012 
L 337.870216 51.216965 
L 340.13922 50.954299 
L 343.542727 50.65411 
L 344.677229 50.466491 
L 348.080736 50.278873 
L 356.022252 49.565923 
L 365.09827 49.003067 
L 366.232772 49.003067 
L 369.636279 48.702878 
L 377.577794 48.402688 
L 379.846799 48.140022 
L 382.115803 47.989928 
L 385.51931 47.839833 
L 386.653813 47.802309 
L 388.922817 47.577167 
L 394.595328 47.314501 
L 399.133337 47.089359 
L 403.671346 46.901741 
L 403.671346 46.901741 
" style="fill:none;stroke:#000000;stroke-linecap:square;stroke-width:1.5;"/>
   </g>
   <g id="patch_22">
    <path d="M 47.437639 151.410839 
L 47.437639 38.190617 
" style="fill:none;stroke:#000000;stroke-linecap:square;stroke-linejoin:miter;stroke-width:0.8;"/>
   </g>
   <g id="text_40">
    <!-- active -->
    <g transform="translate(405.3731 72.192706)scale(0.12 -0.12)">
     <use transform="scale(0.996264)" xlink:href="#Nimbus_Roman_No9_L_Regular-97"/>
     <use transform="translate(44.233569 0)scale(0.996264)" xlink:href="#Nimbus_Roman_No9_L_Regular-99"/>
     <use transform="translate(88.467137 0)scale(0.996264)" xlink:href="#Nimbus_Roman_No9_L_Regular-116"/>
     <use transform="translate(116.162307 0)scale(0.996264)" xlink:href="#Nimbus_Roman_No9_L_Regular-105"/>
     <use transform="translate(141.366847 0)scale(0.996264)" xlink:href="#Nimbus_Roman_No9_L_Regular-118"/>
     <use transform="translate(189.686655 0)scale(0.996264)" xlink:href="#Nimbus_Roman_No9_L_Regular-101"/>
    </g>
   </g>
   <g id="text_41">
    <!-- total -->
    <g transform="translate(405.3731 46.901741)scale(0.12 -0.12)">
     <use transform="scale(0.996264)" xlink:href="#Nimbus_Roman_No9_L_Regular-116"/>
     <use transform="translate(27.69517 0)scale(0.996264)" xlink:href="#Nimbus_Roman_No9_L_Regular-111"/>
     <use transform="translate(77.50837 0)scale(0.996264)" xlink:href="#Nimbus_Roman_No9_L_Regular-116"/>
     <use transform="translate(105.20354 0)scale(0.996264)" xlink:href="#Nimbus_Roman_No9_L_Regular-97"/>
     <use transform="translate(149.437108 0)scale(0.996264)" xlink:href="#Nimbus_Roman_No9_L_Regular-108"/>
    </g>
   </g>
   <g id="text_42">
    <!-- $\leftarrow$ expected time of gen -->
    <defs>
     <path d="M 90.796875 23 
C 92.59375 23 94.40625 23 94.40625 25 
C 94.40625 27 92.59375 27 90.796875 27 
L 16.5 27 
C 22 31.1875 24.703125 35.296875 25.5 36.59375 
C 30 43.5 30.796875 49.796875 30.796875 49.890625 
C 30.796875 51.09375 29.59375 51.09375 28.796875 51.09375 
C 27.09375 51.09375 27 50.890625 26.59375 49.09375 
C 24.296875 39.296875 18.40625 31 7.09375 26.296875 
C 6 25.890625 5.59375 25.6875 5.59375 25 
C 5.59375 24.296875 6.09375 24.09375 7.09375 23.6875 
C 17.5 19.390625 24.203125 11.59375 26.703125 0.390625 
C 27 -0.8125 27.09375 -1.109375 28.796875 -1.109375 
C 29.59375 -1.109375 30.796875 -1.109375 30.796875 0.09375 
C 30.796875 0.296875 29.90625 6.59375 25.703125 13.296875 
C 23.703125 16.296875 20.796875 19.796875 16.5 23 
z
" id="CMSY10-32"/>
     <path d="M 27.796875 0 
L 47.90625 0 
L 47.90625 1.5 
C 44.796875 1.5 42.796875 3.09375 39.703125 7.5 
L 26.90625 27.09375 
L 35.203125 39.09375 
C 37.09375 41.796875 40.09375 43.390625 43.296875 43.484375 
L 43.296875 45 
L 27.5 45 
L 27.5 43.484375 
C 30.5 43.296875 31.5 42.6875 31.5 41.296875 
C 31.5 40.09375 30.296875 37.890625 27.796875 34.796875 
C 27.296875 34.1875 26.09375 32.390625 24.796875 30.390625 
L 23.40625 32.390625 
C 20.59375 36.59375 18.796875 40 18.796875 41.296875 
C 18.796875 42.6875 20.09375 43.390625 23.09375 43.484375 
L 23.09375 45 
L 2.40625 45 
L 2.40625 43.484375 
L 3.296875 43.484375 
C 6.296875 43.484375 7.90625 42.1875 11 37.5 
L 20.40625 23.09375 
L 9 6.59375 
C 6 2.5 5 1.796875 1.703125 1.5 
L 1.703125 0 
L 16.203125 0 
L 16.203125 1.5 
C 13.40625 1.5 12.203125 2 12.203125 3.296875 
C 12.203125 3.890625 12.90625 5.390625 14.203125 7.390625 
L 22.09375 19.6875 
L 31.203125 5.6875 
C 31.59375 5.09375 31.796875 4.5 31.796875 3.890625 
C 31.796875 2.09375 31.09375 1.6875 27.796875 1.5 
z
" id="Nimbus_Roman_No9_L_Regular-120"/>
     <path d="M 0.90625 39.296875 
C 1.796875 39.390625 2.5 39.390625 3.40625 39.390625 
C 6.796875 39.390625 7.5 38.390625 7.5 33.703125 
L 7.5 -13.109375 
C 7.5 -18.3125 6.40625 -19.40625 0.5 -20 
L 0.5 -21.703125 
L 24.703125 -21.703125 
L 24.703125 -20 
C 17.203125 -19.90625 15.90625 -18.796875 15.90625 -12.46875 
L 15.90625 3.296875 
C 19.40625 0 21.796875 -1 26 -1 
C 37.796875 -1 47 10.1875 47 24.6875 
C 47 37.09375 40 46 30.296875 46 
C 24.703125 46 20.296875 43.484375 15.90625 38.09375 
L 15.90625 45.796875 
L 15.296875 46 
C 9.90625 43.890625 6.40625 42.59375 0.90625 40.890625 
z
M 15.90625 33.390625 
C 15.90625 36.390625 21.5 39.984375 26.09375 39.984375 
C 33.5 39.984375 38.40625 32.390625 38.40625 20.796875 
C 38.40625 9.6875 33.5 2.1875 26.296875 2.1875 
C 21.59375 2.1875 15.90625 5.796875 15.90625 8.796875 
z
" id="Nimbus_Roman_No9_L_Regular-112"/>
     <path d="M 30.90625 45 
L 18.59375 45 
L 18.59375 56.421875 
C 18.59375 62.140625 20.5 65.1875 24.296875 65.1875 
C 26.40625 65.1875 27.796875 64.203125 29.59375 61.34375 
C 31.203125 58.78125 32.40625 57.796875 34.09375 57.796875 
C 36.40625 57.796875 38.296875 59.578125 38.296875 61.84375 
C 38.296875 65.390625 33.90625 68 27.90625 68 
C 21.703125 68 16.40625 65.296875 13.796875 60.765625 
C 11.203125 56.421875 10.40625 52.875 10.296875 45 
L 2.09375 45 
L 2.09375 41.796875 
L 10.296875 41.796875 
L 10.296875 10.390625 
C 10.296875 3.09375 9.203125 1.890625 2 1.5 
L 2 0 
L 28 0 
L 28 1.5 
C 19.796875 1.796875 18.703125 2.890625 18.703125 10.390625 
L 18.703125 41.796875 
L 30.90625 41.796875 
z
" id="Nimbus_Roman_No9_L_Regular-102"/>
    </defs>
    <g transform="translate(309.125511 107.23983)scale(0.12 -0.12)">
     <use transform="scale(0.996264)" xlink:href="#CMSY10-32"/>
     <use transform="translate(124.533001 0)scale(0.996264)" xlink:href="#Nimbus_Roman_No9_L_Regular-101"/>
     <use transform="translate(167.273177 0)scale(0.996264)" xlink:href="#Nimbus_Roman_No9_L_Regular-120"/>
     <use transform="translate(217.086378 0)scale(0.996264)" xlink:href="#Nimbus_Roman_No9_L_Regular-112"/>
     <use transform="translate(266.899578 0)scale(0.996264)" xlink:href="#Nimbus_Roman_No9_L_Regular-101"/>
     <use transform="translate(311.133147 0)scale(0.996264)" xlink:href="#Nimbus_Roman_No9_L_Regular-99"/>
     <use transform="translate(355.366716 0)scale(0.996264)" xlink:href="#Nimbus_Roman_No9_L_Regular-116"/>
     <use transform="translate(383.061885 0)scale(0.996264)" xlink:href="#Nimbus_Roman_No9_L_Regular-101"/>
     <use transform="translate(427.295454 0)scale(0.996264)" xlink:href="#Nimbus_Roman_No9_L_Regular-100"/>
     <use transform="translate(502.015255 0)scale(0.996264)" xlink:href="#Nimbus_Roman_No9_L_Regular-116"/>
     <use transform="translate(529.710424 0)scale(0.996264)" xlink:href="#Nimbus_Roman_No9_L_Regular-105"/>
     <use transform="translate(557.405594 0)scale(0.996264)" xlink:href="#Nimbus_Roman_No9_L_Regular-109"/>
     <use transform="translate(634.913964 0)scale(0.996264)" xlink:href="#Nimbus_Roman_No9_L_Regular-101"/>
     <use transform="translate(704.054133 0)scale(0.996264)" xlink:href="#Nimbus_Roman_No9_L_Regular-111"/>
     <use transform="translate(753.867333 0)scale(0.996264)" xlink:href="#Nimbus_Roman_No9_L_Regular-102"/>
     <use transform="translate(811.949163 0)scale(0.996264)" xlink:href="#Nimbus_Roman_No9_L_Regular-103"/>
     <use transform="translate(861.762364 0)scale(0.996264)" xlink:href="#Nimbus_Roman_No9_L_Regular-101"/>
     <use transform="translate(905.995933 0)scale(0.996264)" xlink:href="#Nimbus_Roman_No9_L_Regular-110"/>
    </g>
   </g>
   <g id="text_43">
    <!-- $\leftarrow$ empirical time of gen -->
    <g transform="translate(319.434459 134.557075)scale(0.12 -0.12)">
     <use transform="scale(0.996264)" xlink:href="#CMSY10-32"/>
     <use transform="translate(124.533001 0)scale(0.996264)" xlink:href="#Nimbus_Roman_No9_L_Regular-101"/>
     <use transform="translate(168.76657 0)scale(0.996264)" xlink:href="#Nimbus_Roman_No9_L_Regular-109"/>
     <use transform="translate(246.27494 0)scale(0.996264)" xlink:href="#Nimbus_Roman_No9_L_Regular-112"/>
     <use transform="translate(296.088141 0)scale(0.996264)" xlink:href="#Nimbus_Roman_No9_L_Regular-105"/>
     <use transform="translate(323.78331 0)scale(0.996264)" xlink:href="#Nimbus_Roman_No9_L_Regular-114"/>
     <use transform="translate(356.95854 0)scale(0.996264)" xlink:href="#Nimbus_Roman_No9_L_Regular-105"/>
     <use transform="translate(384.653709 0)scale(0.996264)" xlink:href="#Nimbus_Roman_No9_L_Regular-99"/>
     <use transform="translate(428.887278 0)scale(0.996264)" xlink:href="#Nimbus_Roman_No9_L_Regular-97"/>
     <use transform="translate(473.120847 0)scale(0.996264)" xlink:href="#Nimbus_Roman_No9_L_Regular-108"/>
     <use transform="translate(525.722617 0)scale(0.996264)" xlink:href="#Nimbus_Roman_No9_L_Regular-116"/>
     <use transform="translate(553.417786 0)scale(0.996264)" xlink:href="#Nimbus_Roman_No9_L_Regular-105"/>
     <use transform="translate(581.112956 0)scale(0.996264)" xlink:href="#Nimbus_Roman_No9_L_Regular-109"/>
     <use transform="translate(658.621326 0)scale(0.996264)" xlink:href="#Nimbus_Roman_No9_L_Regular-101"/>
     <use transform="translate(727.761495 0)scale(0.996264)" xlink:href="#Nimbus_Roman_No9_L_Regular-111"/>
     <use transform="translate(777.574695 0)scale(0.996264)" xlink:href="#Nimbus_Roman_No9_L_Regular-102"/>
     <use transform="translate(835.656525 0)scale(0.996264)" xlink:href="#Nimbus_Roman_No9_L_Regular-103"/>
     <use transform="translate(885.469726 0)scale(0.996264)" xlink:href="#Nimbus_Roman_No9_L_Regular-101"/>
     <use transform="translate(929.703295 0)scale(0.996264)" xlink:href="#Nimbus_Roman_No9_L_Regular-110"/>
    </g>
   </g>
  </g>
 </g>
 <defs>
  <clipPath id="p1bf185cf13">
   <rect height="113.220223" width="398.210291" x="47.437639" y="179.495482"/>
  </clipPath>
  <clipPath id="p8e21262bcb">
   <rect height="113.220223" width="398.210291" x="47.437639" y="38.190617"/>
  </clipPath>
 </defs>
</svg>
